<?xml version="1.0" standalone="no"?>
<!DOCTYPE svg PUBLIC "-//W3C//DTD SVG 1.1//EN" "http://www.w3.org/Graphics/SVG/1.1/DTD/svg11.dtd" >
<svg xmlns="http://www.w3.org/2000/svg">
<metadata>
Created by FontPrep 20130207 at Wed Dec 17 12:12:52 2014
 By Smith, Ricky
Copyright (c) 2007 by Betatype. All rights reserved.
</metadata>
<defs>
<font id="d2c1ce1843d99d2b9e5636c24ad8b3e9" horiz-adv-x='1024' >
  <font-face 
    font-family="BoSPillGothic-Bold"
    font-weight="700"
    font-stretch="squinchy"
    units-per-em="2048"
    panose-1="2 0 5 3 3 0 0 2 0 4"
    ascent="1638"
    descent="-410"
    x-height="1044"
    cap-height="1393"
    bbox="-70 -553 1989 1907"
    underline-thickness="102"
    underline-position="-102"
    unicode-range="U+000D-FB04"
  />
<missing-glyph horiz-adv-x="438" 
 />
    <glyph glyph-name="germandbls" unicode="ss" horiz-adv-x="1187" 
d="M70 850v188h98v176q0 129 86 214t200 85t222 -49l-53 -192q-53 20 -95 20q-117 0 -116 -135v-119h686v-188l-185 -242h27q90 -8 136 -72t46 -155v-131q0 -119 -79 -192q-79 -72 -237 -72t-249 108l96 146q15 -23 55 -41t72 -19q96 0 97 86v82q1 39 -19 66t-59 26h-146
v162l193 244h-428v-846h-250v850h-98z" />
    <glyph glyph-name="arrowleft" unicode="&#x3c;&#x2d;" horiz-adv-x="880" 
d="M788 602v-174h-444l180 -215l-106 -82l-330 385l340 404l107 -89l-191 -229h444z" />
    <glyph glyph-name="arrowright" unicode="&#x2d;&#x3e;" horiz-adv-x="880" 
d="M88 428v174h447l-205 244l106 90l352 -420l-317 -410l-115 89l179 233h-447z" />
    <glyph glyph-name="smiley" unicode="&#x28;&#x3a;" horiz-adv-x="1574" 
d="M907 809v233h185v-233h-185zM496 809v233h184v-233h-184zM852 328h-125q-123 0 -221 81t-141 205l120 50q29 -86 96 -144t146 -59h125q82 1 150 61t104 148l113 -52q-45 -130 -143 -210t-224 -80zM190 717q0 -256 174 -432t428 -176q253 0 426 176t173 432t-173 430
t-427 174q-253 0 -427 -174t-174 -430zM61 717q0 313 210 524q209 211 519 211t520 -211t210 -523t-211 -523t-519 -211t-519 210q-210 210 -210 523z" />
    <glyph glyph-name="f_j" unicode="fj" horiz-adv-x="1054" 
d="M150 1059v129q0 150 122 230t291 79q170 0 375 -76l-41 -178q-27 5 -101 21t-175 16q-217 0 -218 -141v-80h222v-172h-222v-887h-253v887h-113v172h113zM723 86v973h256v-987q0 -220 -134 -352t-360 -166l-63 184q164 44 232 120t69 228z" />
    <glyph glyph-name="fi" unicode="fi" horiz-adv-x="1099" 
d="M782 0v1057h256v-1057h-256zM164 1059v129q0 150 122 230t292 79q170 0 374 -76l-41 -178q-27 5 -100 21t-176 16q-217 0 -217 -141v-80h221v-172h-221v-887h-254v887h-113v172h113z" />
    <glyph glyph-name="fl" unicode="fl" horiz-adv-x="1202" 
d="M807 0v1266q-72 14 -158 14q-217 0 -217 -141v-80h221v-172h-221v-887h-254v887h-112v172h112v129q0 150 122 230t292 79q170 0 375 -76l-2 -8h98v-1413h-256z" />
    <glyph glyph-name="wink" unicode="&#x28;&#x3b;" horiz-adv-x="1574" 
d="M1204 862h-350v105h350v-105zM469 805v223h207v-223h-207zM848 297h-125q-121 0 -220 82t-143 207l121 47q29 -87 96 -145t146 -58h125q82 0 152 60t102 149l112 -49q-45 -129 -143 -211t-223 -82zM791 1321q-253 0 -427 -174t-174 -431t174 -433q174 -177 428 -177
q253 0 426 176t173 434q0 257 -173 431t-427 174zM61 717q0 313 210 524q209 211 519 211t520 -211t210 -523t-211 -523t-519 -211t-519 210q-210 210 -210 523z" />
    <glyph glyph-name="T_h" unicode="Th" horiz-adv-x="1875" 
d="M1464 1065q299 0 299 -356v-709h-258v694q0 68 -28 106q-29 38 -83 38t-108 -54t-55 -125v-659h-256v1163h-365v-1163h-256v1163h-329v230h1206v-486q29 70 92 114t141 44z" />
    <glyph glyph-name=".notdef" horiz-adv-x="438" 
 />
    <glyph glyph-name=".null" horiz-adv-x="0" 
 />
    <glyph glyph-name="nonmarkingreturn" horiz-adv-x="681" 
 />
    <glyph glyph-name="CR" unicode="&#xd;" horiz-adv-x="438" 
 />
    <glyph glyph-name="space" unicode=" " horiz-adv-x="438" 
 />
    <glyph glyph-name="exclam" unicode="!" horiz-adv-x="593" 
d="M180 0v246h275v-246h-275zM451 1393l-23 -908h-231l-19 908h273z" />
    <glyph glyph-name="quotedbl" unicode="&#x22;" horiz-adv-x="643" 
d="M379 952l-10 453h166l-13 -453h-143zM117 952l-11 453h168l-10 -453h-147z" />
    <glyph glyph-name="numbersign" unicode="#" horiz-adv-x="1271" 
d="M522 414h180l68 395h-180zM625 965h178l51 284h180l-45 -284h193l-4 -156h-222l-67 -395h215l-4 -156h-246l-41 -258h-186l43 258h-181l-45 -258h-182l39 258h-213l2 156h246l70 395h-248l6 156h274l49 284h187z" />
    <glyph glyph-name="dollar" unicode="$" horiz-adv-x="950" 
d="M887 362q0 -154 -78 -246t-213 -118v-246h-215v238q-213 27 -326 168l131 174q96 -125 265 -125q75 0 119 42t44 128v119l-503 262v286q0 299 274 357v196h215v-190q158 -25 289 -127l-103 -190q-131 96 -249 96q-158 0 -158 -156v-147l508 -258v-263z" />
    <glyph glyph-name="percent" unicode="%" horiz-adv-x="1525" 
d="M446 0h-223l862 1393h213zM1239 238v120q0 41 -30 64q-31 22 -75 22t-77 -26t-33 -62l2 -120q0 -37 32 -61q32 -23 74 -23t74 24t33 62zM299 1159v-119q0 -82 109 -82q42 0 74 24t32 58v123q0 35 -32 55t-74 21q-42 -1 -76 -23q-33 -22 -33 -57zM1409 401v-190
q0 -107 -77 -167q-78 -60 -196 -60t-201 59t-83 156v196q0 103 79 163t199 60t200 -56t79 -161zM694 1182v-166q0 -104 -83 -168t-207 -64t-206 60q-81 60 -81 172v166q0 106 83 168t204 63q122 1 206 -65t84 -166z" />
    <glyph glyph-name="ampersand" unicode="&#x26;" horiz-adv-x="1339" 
d="M477 1122v-94l90 -108q90 90 90 189t-88 99q-43 0 -67 -22t-25 -64zM512 209q61 0 111 32t131 113l-199 240q-14 -16 -44 -45t-41 -41t-32 -34q-63 -68 -63 -136q0 -129 137 -129zM260 1147q0 121 92 195t232 73q140 0 225 -79q84 -79 84 -222q0 -178 -174 -348l-12 -12
l198 -238l191 203l161 -148l-206 -229l196 -233l-166 -152l-180 217l-2 -2q-154 -193 -385 -192q-188 0 -295 91q-106 91 -106 273q0 101 68 185q22 26 35 42t43 46q30 29 45 45t54 52t56 52l-154 186v195z" />
    <glyph glyph-name="quotesingle" unicode="'" horiz-adv-x="473" 
d="M160 969l-23 485h199l-25 -485h-151z" />
    <glyph glyph-name="parenleft" unicode="(" horiz-adv-x="759" 
d="M199 231v639q0 232 91 414t245 272l110 -104q-101 -68 -163 -218t-62 -364v-639q0 -430 225 -573l-110 -107q-154 91 -245 271t-91 409z" />
    <glyph glyph-name="parenright" unicode=")" horiz-adv-x="792" 
d="M596 868v-626q0 -230 -90 -414t-242 -274l-110 92q100 72 161 228t62 368v626q0 432 -209 582l96 109q152 -90 242 -275t90 -416z" />
    <glyph glyph-name="asterisk" unicode="*" horiz-adv-x="784" 
d="M328 1438h127v-213l202 67l39 -121l-202 -63l124 -172l-100 -76l-127 174l-127 -174l-100 74l127 174l-203 63l37 121l203 -67v213z" />
    <glyph glyph-name="plus" unicode="+" horiz-adv-x="1138" 
d="M666 1270v-387h413v-183h-413v-434h-199v434h-410v183h410v387h199z" />
    <glyph glyph-name="comma" unicode="," horiz-adv-x="491" 
d="M121 184h215v-55q0 -109 -30 -196t-60 -126t-72 -81l-131 69q78 113 78 264v125z" />
    <glyph glyph-name="hyphen" unicode="-" horiz-adv-x="641" 
d="M84 489v211h473v-211h-473z" />
    <glyph glyph-name="period" unicode="." horiz-adv-x="524" 
d="M129 0v246h262v-246h-262z" />
    <glyph glyph-name="slash" unicode="/" horiz-adv-x="813" 
d="M287 -174h-217l491 1567h219z" />
    <glyph glyph-name="zero" unicode="0" horiz-adv-x="1040" 
d="M690 381v623q0 182 -172 182q-78 0 -124 -47t-46 -135v-623q0 -86 46 -132t125 -46t125 46t46 132zM94 1004q0 188 118 298t305 111t308 -111t121 -298v-623q0 -186 -121 -294q-121 -107 -308 -107t-305 108t-118 293v623z" />
    <glyph glyph-name="one" unicode="1" horiz-adv-x="745" 
d="M573 1393v-1393h-254v1143l-208 -127l-62 201l270 176h254z" />
    <glyph glyph-name="two" unicode="2" horiz-adv-x="919" 
d="M854 223v-223h-760v123q0 183 77 329t259 304q86 76 129 137t43 133t-44 108t-114 35q-119 0 -243 -120l-123 182q178 168 416 168q156 0 260 -89t104 -261q0 -37 -7 -73t-12 -62t-28 -62t-31 -49q-8 -14 -45 -54q-37 -41 -45 -51t-58 -58t-59 -58q-117 -110 -159 -176
t-54 -183h494z" />
    <glyph glyph-name="three" unicode="3" horiz-adv-x="985" 
d="M864 1081v-108q0 -90 -46 -166t-128 -107q188 -68 189 -245v-142q0 -163 -118 -245t-286 -82q-169 0 -283 76t-141 206l217 84q27 -143 191 -143t164 135v115q0 139 -183 139h-94v207h74q188 0 188 149v97q0 135 -140 135t-163 -135l-211 75q20 129 126 208t270 79
q166 0 270 -82t104 -250z" />
    <glyph glyph-name="four" unicode="4" horiz-adv-x="1009" 
d="M524 508v485h-22l-213 -485h235zM780 1393v-885h170v-227h-170v-281h-256v281h-473v223l432 889h297z" />
    <glyph glyph-name="five" unicode="5" horiz-adv-x="962" 
d="M885 563v-239q0 -158 -114 -251t-267 -93q-356 0 -398 344l236 61q10 -182 158 -182q57 0 94 34t37 89v209q0 75 -41 111t-103 36q-92 0 -149 -82l-219 62l35 731h657v-228h-438l-19 -346q80 59 214 59t226 -82q92 -83 91 -233z" />
    <glyph glyph-name="six" unicode="6" horiz-adv-x="993" 
d="M653 346v217q0 74 -41 111q-42 37 -106 37t-110 -38t-46 -110v-217q0 -74 46 -108t110 -35q64 1 105 35q42 34 42 108zM580 907q146 0 236 -83q91 -83 91 -232v-277q1 -159 -117 -247t-286 -88t-289 96t-121 264v690q0 170 122 276t320 107q198 0 322 -121l-110 -174
q-88 72 -211 72q-83 0 -135 -43t-52 -117v-225q84 102 230 102z" />
    <glyph glyph-name="seven" unicode="7" horiz-adv-x="794" 
d="M10 1151v242h760v-131l-330 -1262h-293l326 1151h-463z" />
    <glyph glyph-name="eight" unicode="8" horiz-adv-x="1032" 
d="M358 965q0 -61 40 -101t96 -43h26q57 4 95 40t38 104v69q0 70 -45 109t-104 39q-58 0 -102 -39t-44 -109v-69zM678 340v123q0 67 -49 111t-109 44h-28q-64 -6 -112 -46t-48 -109v-117q0 -74 50 -108t121 -35t123 33t52 104zM909 993q0 -88 -63 -167t-137 -109
q93 -35 161 -107t68 -176v-108q0 -168 -125 -257t-309 -89t-306 89t-122 257v108q0 98 67 174q68 76 160 109q-88 33 -144 111t-57 173v62q0 162 116 253t287 91t288 -90t116 -254v-70z" />
    <glyph glyph-name="nine" unicode="9" horiz-adv-x="997" 
d="M645 791v280q0 51 -46 83t-104 32q-59 0 -103 -31t-44 -84v-278q0 -57 45 -88t105 -31t104 31q43 31 43 86zM674 328v241q-38 -51 -100 -80t-121 -28q-158 0 -259 83t-102 230v309q0 150 120 240t285 90t285 -90t119 -240v-757q0 -158 -113 -251t-266 -93
q-324 0 -387 286l234 60q29 -123 149 -123q59 0 108 35q48 35 48 88z" />
    <glyph glyph-name="colon" unicode=":" horiz-adv-x="540" 
d="M147 801v264h261v-264h-261zM147 0v264h261v-264h-261z" />
    <glyph glyph-name="semicolon" unicode=";" horiz-adv-x="593" 
d="M242 184h215v-55q0 -109 -30 -196q-29 -87 -59 -126t-73 -81l-131 69q78 113 78 264v125zM459 1065v-272h-248v272h248z" />
    <glyph glyph-name="less" unicode="&#x3c;" horiz-adv-x="1175" 
d="M1085 147l-77 -153l-897 518l874 563l74 -157l-617 -398z" />
    <glyph glyph-name="equal" unicode="=" horiz-adv-x="1107" 
d="M82 377v188h944v-188h-944zM82 809v184h944v-184h-944z" />
    <glyph glyph-name="greater" unicode="&#x3e;" horiz-adv-x="1159" 
d="M207 1065l866 -526l-866 -557l-94 155l604 391l-604 379z" />
    <glyph glyph-name="question" unicode="?" horiz-adv-x="768" 
d="M180 0v246h301v-246h-301zM354 1413q352 0 353 -297v-86q1 -43 -19 -86t-33 -61t-110 -115q-59 -63 -79 -105t-22 -120v-101h-245v131q-1 91 31 149t84 108t69 67q16 16 38 52t21 65v67q0 102 -127 103q-92 0 -196 -84l-90 180q153 133 325 133z" />
    <glyph glyph-name="at" unicode="@" horiz-adv-x="1587" 
d="M690 459q80 0 144 54q63 54 75 134q41 172 41 248q0 100 -121 100q-79 1 -143 -67t-80 -152q-29 -147 -28 -198q-1 -119 112 -119zM818 1436q290 0 486 -163t195 -415q0 -512 -340 -512q-186 0 -221 117q-45 -59 -124 -101q-80 -42 -182 -40q-102 0 -163 55t-61 141
q0 147 65 344q37 119 148 195t231 76q120 -1 192 -53q70 -52 70 -140q0 -37 -26 -165t-26 -181t28 -85q27 -32 69 -32q197 0 197 383q0 197 -153 322t-387 125q-234 1 -388 -139t-180 -338t-25 -287q0 -186 155 -307t427 -121q162 0 319 86l64 -115q-178 -98 -383 -98
q-336 0 -530 154t-193 397q0 133 22 284q44 261 234 437t480 176z" />
    <glyph glyph-name="A" unicode="A" horiz-adv-x="1067" 
d="M424 545h225l-108 530zM401 1405h283l348 -1405h-270l-66 334h-319l-72 -334h-274z" />
    <glyph glyph-name="B" unicode="B" horiz-adv-x="1071" 
d="M393 1180v-371h137q61 0 100 41q38 41 38 108v60q0 162 -168 162h-107zM700 371v84q0 73 -47 115t-114 42h-146v-401h152q63 0 109 37t46 123zM922 973q0 -76 -48 -150t-122 -98q205 -84 204 -289v-94q0 -166 -100 -254t-266 -88h-453v1393h420q162 1 263 -97t102 -264
v-59z" />
    <glyph glyph-name="C" unicode="C" horiz-adv-x="931" 
d="M557 1190q-92 0 -142 -52t-50 -145v-602q0 -92 55 -142t145 -50q141 0 223 75l109 -165q-127 -129 -338 -129t-331 103t-119 294v633q0 184 121 294q122 110 309 109q229 0 362 -139l-117 -176q-100 92 -227 92z" />
    <glyph glyph-name="D" unicode="D" horiz-adv-x="1101" 
d="M723 430v528q0 100 -60 154t-155 53h-117v-942h101q102 -1 166 51t65 156zM139 1393h369q213 0 342 -111t129 -328v-520q0 -214 -137 -324t-350 -110h-353v1393z" />
    <glyph glyph-name="E" unicode="E" 
d="M678 598h-285v-375h447v-223h-701v1393h654v-228h-400v-348h285v-219z" />
    <glyph glyph-name="F" unicode="F" horiz-adv-x="833" 
d="M791 1393v-228h-398v-348h285v-217h-283v-600h-256v1393h652z" />
    <glyph glyph-name="G" unicode="G" horiz-adv-x="1089" 
d="M557 567v211h422v-633q-176 -166 -418 -165q-199 0 -325 106t-127 295v625q1 192 125 300t335 108t367 -128l-90 -188q-68 44 -126 66t-148 22t-149 -50q-58 -50 -58 -137v-614q0 -82 55 -132t151 -50t152 41v323h-166z" />
    <glyph glyph-name="H" unicode="H" horiz-adv-x="1179" 
d="M784 795v598h256v-1393h-256v567h-391v-567h-256v1393h256v-598h391z" />
    <glyph glyph-name="I" unicode="I" horiz-adv-x="587" 
d="M164 0v1393h256v-1393h-256z" />
    <glyph glyph-name="J" unicode="J" horiz-adv-x="940" 
d="M545 334v1059h256v-1061q-1 -166 -101 -257t-273 -91t-277 76t-119 219l250 55q-5 -45 35 -86t96 -41q133 0 133 127z" />
    <glyph glyph-name="K" unicode="K" horiz-adv-x="1046" 
d="M393 0h-254v1393h254v-631l316 631h286l-352 -652l393 -741h-293l-272 559l-78 -110v-449z" />
    <glyph glyph-name="L" unicode="L" horiz-adv-x="872" 
d="M139 1393h254v-1170h465v-223h-719v1393z" />
    <glyph glyph-name="M" unicode="M" horiz-adv-x="1386" 
d="M1247 1393v-1393h-256v827l-221 -565h-156l-221 565v-827h-256v1393h273l282 -764l283 764h272z" />
    <glyph glyph-name="N" unicode="N" horiz-adv-x="1189" 
d="M815 1393h236v-1393h-242l-438 938v-938h-234v1393h244l434 -951v951z" />
    <glyph glyph-name="O" unicode="O" horiz-adv-x="1130" 
d="M770 385v608q0 89 -51 141t-133 52h-33q-84 0 -135 -50t-51 -141v-610q0 -88 50 -135t138 -47h31q84 0 134 48t50 134zM586 1413q192 1 316 -111t124 -301v-620q0 -189 -121 -295t-319 -106h-31q-201 0 -323 104t-121 297v620q0 190 123 302q124 111 319 110h33z" />
    <glyph glyph-name="P" unicode="P" horiz-adv-x="1034" 
d="M705 868v115q1 84 -45 133t-113 49h-154v-469h154q68 0 113 43t45 129zM139 1393h422q176 -1 288 -101t112 -278v-174q0 -170 -112 -262t-282 -93h-174v-485h-254v1393z" />
    <glyph glyph-name="Q" unicode="Q" horiz-adv-x="1112" 
d="M764 385v608q0 89 -51 141t-133 52h-33q-84 0 -135 -50t-52 -141v-610q0 -88 50 -135t139 -47h31q29 0 43 2l-115 149l131 103l113 -148q12 35 12 76zM580 1413q192 1 316 -111t124 -301v-620q0 -174 -107 -281l103 -131l-131 -102l-113 143q-96 -31 -192 -30h-31
q-201 0 -323 104t-122 297v620q0 189 124 301t319 111h33z" />
    <glyph glyph-name="R" unicode="R" horiz-adv-x="1036" 
d="M393 1165v-422h158q63 4 104 42t41 110v119q0 72 -42 112t-111 39h-150zM950 926q0 -268 -194 -334l239 -592h-270l-201 532h-131v-532h-256v1393h422q187 -1 289 -95t102 -282v-90z" />
    <glyph glyph-name="S" unicode="S" horiz-adv-x="956" 
d="M487 -16q-270 0 -405 209l149 157q39 -74 107 -108t134 -35q66 0 116 42q49 42 49 128t-89 146q-43 34 -104 71q-156 94 -240 191t-85 237q-2 190 107 290q110 99 278 99q236 0 366 -174l-137 -160q-80 106 -213 107q-74 0 -117 -38t-43 -100t28 -102q28 -41 75 -76
t117 -77q293 -168 297 -420q1 -175 -101 -281t-289 -106z" />
    <glyph glyph-name="T" unicode="T" horiz-adv-x="946" 
d="M346 1165h-323v228h901v-228h-322v-1165h-256v1165z" />
    <glyph glyph-name="U" unicode="U" horiz-adv-x="1177" 
d="M786 387v1006h256v-1002q0 -197 -126 -305t-324 -106q-198 0 -327 106q-130 106 -130 305v1002h256v-1006q1 -88 59 -136t142 -48t139 49t55 135z" />
    <glyph glyph-name="V" unicode="V" horiz-adv-x="956" 
d="M23 1393h280l170 -1041l180 1041h279l-328 -1393h-264z" />
    <glyph glyph-name="W" unicode="W" horiz-adv-x="1435" 
d="M590 1393h252l176 -955l106 955h265l-211 -1393h-283l-180 932l-160 -932h-301l-209 1393h264l113 -951z" />
    <glyph glyph-name="X" unicode="X" horiz-adv-x="972" 
d="M68 1393h270l156 -500l165 500h273l-277 -699l275 -694h-273l-165 494l-177 -494h-276l289 696z" />
    <glyph glyph-name="Y" unicode="Y" horiz-adv-x="954" 
d="M344 0v522l-305 871h272l162 -619l168 619h270l-311 -873v-520h-256z" />
    <glyph glyph-name="Z" unicode="Z" horiz-adv-x="944" 
d="M88 1393h774v-140l-487 -1026h489v-227h-790v141l485 1022h-471v230z" />
    <glyph glyph-name="bracketleft" unicode="[" horiz-adv-x="540" 
d="M139 1393h363v-179h-146v-1368h138v-174h-355v1721z" />
    <glyph glyph-name="backslash" unicode="\" horiz-adv-x="696" 
d="M465 0l-418 1393h225l418 -1393h-225z" />
    <glyph glyph-name="bracketright" unicode="]" horiz-adv-x="536" 
d="M82 1393h358v-1715h-358v179h139v1347h-139v189z" />
    <glyph glyph-name="asciicircum" unicode="^" horiz-adv-x="847" 
d="M428 1133l-207 -340l-141 57l350 563l336 -561l-137 -59z" />
    <glyph glyph-name="underscore" unicode="_" horiz-adv-x="1099" 
d="M80 -223v157h940v-157h-940z" />
    <glyph glyph-name="grave" unicode="`" horiz-adv-x="518" 
d="M66 1389l163 100l211 -313l-121 -76z" />
    <glyph glyph-name="a" unicode="a" 
d="M545 295v129q0 47 -36 74q-36 26 -78 26q-41 0 -67 -24t-26 -62v-157q0 -39 26 -63t68 -24t77 28q36 26 36 73zM500 1061q145 0 224 -80t79 -233v-748h-211l-21 84q-45 -54 -91 -72t-113 -18q-135 0 -209 73t-74 203v154q0 131 74 204q74 72 202 72t191 -65v106
q0 105 -119 105t-229 -60l-70 183q160 92 367 92z" />
    <glyph glyph-name="b" unicode="b" horiz-adv-x="954" 
d="M354 733v-420q0 -57 38 -88t91 -30q123 0 123 110v440q0 53 -32 82t-88 29t-94 -32t-38 -91zM354 1393v-445q74 117 211 117t218 -88t81 -244v-420q0 -157 -80 -243t-224 -86t-208 118l-39 -102h-215v1393h256z" />
    <glyph glyph-name="c" unicode="c" horiz-adv-x="774" 
d="M332 332q0 -132 170 -130q80 0 139 56l109 -178q-100 -98 -282 -98t-287 79q-105 80 -105 240v438q0 162 104 244t283 82q86 0 165 -32t122 -83l-105 -172q-63 60 -153 60q-160 0 -160 -129v-377z" />
    <glyph glyph-name="d" unicode="d" horiz-adv-x="966" 
d="M598 313v420q0 59 -38 91t-93 32t-88 -29t-33 -82v-440q0 -111 125 -110q51 1 89 31t38 87zM600 1393h256v-1393h-215l-39 102q-64 -118 -208 -118t-224 86t-80 243v420q0 156 81 244t218 88t211 -117v445z" />
    <glyph glyph-name="e" unicode="e" 
d="M466 852q-50 0 -87 -32t-37 -83v-106h248v108q0 49 -37 81t-87 32zM524 205q131 0 211 65l88 -174q-129 -108 -309 -108t-304 91t-124 255v399q0 145 115 237t271 93q156 0 257 -90q100 -90 100 -240v-280h-487v-117q0 -63 51 -97t131 -34z" />
    <glyph glyph-name="f" unicode="f" horiz-adv-x="567" 
d="M125 1044v95q0 147 82 225t205 78t196 -39l-39 -193q-118 31 -162 -11q-28 -26 -28 -75v-80h168v-174h-168v-870h-254v870h-86v174h86z" />
    <glyph glyph-name="g" unicode="g" horiz-adv-x="931" 
d="M578 606v113q-2 61 -36 90t-84 29t-84 -29t-34 -90v-113q0 -61 33 -94t86 -33q53 1 86 31t33 96zM410 -252h82q50 0 82 24t33 71q1 65 -99 89q-24 6 -36 8t-37 9q-26 6 -38 8q-53 -18 -79 -45t-26 -72q0 -44 37 -68q36 -24 81 -24zM332 249q0 -34 11 -49q22 -30 120 -50
q97 -21 141 -30q100 -21 169 -67q93 -63 91 -225q0 -131 -105 -210t-255 -79h-96q-166 0 -264 71q-97 71 -97 197q0 164 150 228q-90 53 -91 151q0 98 105 174q-131 90 -131 281v80q0 168 104 254t275 86q106 0 190 -39l211 78l62 -162l-129 -41q43 -74 43 -174v-98
q0 -164 -104 -247t-269 -83q-51 0 -94 6q-37 -18 -37 -52z" />
    <glyph glyph-name="h" unicode="h" horiz-adv-x="1009" 
d="M639 717q0 121 -111 121q-55 0 -105 -44t-50 -108v-686h-254v1393h254v-484q33 70 101 112t142 42q145 0 212 -83t67 -247v-733h-256v717z" />
    <glyph glyph-name="i" unicode="i" horiz-adv-x="540" 
d="M139 1174v219h262v-219h-262zM141 0v1044h258v-1044h-258z" />
    <glyph glyph-name="j" unicode="j" horiz-adv-x="561" 
d="M162 1174v219h258v-219h-258zM164 117v927h258v-956q0 -227 -96 -339t-330 -179l-66 217q130 49 182 113t52 217z" />
    <glyph glyph-name="k" unicode="k" horiz-adv-x="878" 
d="M373 442v-442h-256v1393h256v-721h51l170 372h260l-231 -487l249 -557h-256l-192 442h-51z" />
    <glyph glyph-name="l" unicode="l" horiz-adv-x="540" 
d="M141 0v1393h256v-1393h-256z" />
    <glyph glyph-name="m" unicode="m" horiz-adv-x="1513" 
d="M1116 1063q283 0 283 -301v-762h-256v702q0 139 -103 140q-68 0 -112 -41t-45 -115v-686h-254v707q0 135 -99 135q-59 0 -107 -45t-48 -111v-686h-256v1044h194l21 -129q31 66 105 107q75 41 153 41q197 0 242 -162q39 70 112 116q74 46 170 46z" />
    <glyph glyph-name="n" unicode="n" horiz-adv-x="999" 
d="M602 1063q283 0 283 -334v-729h-256v698q0 141 -107 142q-55 0 -101 -45t-46 -109v-686h-256v1044h203l22 -141q100 160 258 160z" />
    <glyph glyph-name="o" unicode="o" horiz-adv-x="940" 
d="M596 309v426q0 47 -36 75t-88 28t-91 -28t-39 -75v-426q0 -47 38 -76t90 -29t89 30q37 28 37 75zM86 739q0 150 108 237t281 87q171 0 275 -86t104 -238v-434q0 -147 -111 -234t-271 -87t-274 86q-112 86 -112 235v434z" />
    <glyph glyph-name="p" unicode="p" horiz-adv-x="960" 
d="M358 729v-420q0 -61 38 -93t94 -32t90 33q33 33 32 88v422q0 59 -33 90t-89 31t-94 -31t-38 -88zM358 -451h-254v1495h213l39 -106q33 59 88 91t117 32q145 0 226 -88t81 -246v-420q0 -155 -81 -241t-219 -86t-210 112v-543z" />
    <glyph glyph-name="q" unicode="q" horiz-adv-x="960" 
d="M598 309v420q0 57 -38 88t-89 31q-125 0 -125 -113v-440q0 -53 33 -82t88 -29t93 32t38 93zM600 -451v543q-72 -112 -211 -112t-219 86t-80 241v420q0 158 80 246t223 88t209 -121l39 104h215v-1495h-256z" />
    <glyph glyph-name="r" unicode="r" horiz-adv-x="632" 
d="M546 1065q62 0 89 -16l-33 -269q-43 6 -74 6q-63 0 -107 -54t-44 -138v-594h-256v1044h203l36 -161q23 80 74 131q50 51 112 51z" />
    <glyph glyph-name="s" unicode="s" horiz-adv-x="813" 
d="M412 -20q-100 0 -194 32t-150 92l104 168q86 -86 202 -86t115 103q1 41 -29 73t-110 66q-254 102 -254 322q0 156 96 236t252 79q154 0 287 -94l-84 -176q-90 59 -186 59q-117 0 -117 -104q0 -83 129 -138q260 -100 260 -319q-2 -139 -89 -226t-232 -87z" />
    <glyph glyph-name="t" unicode="t" horiz-adv-x="651" 
d="M502 219q29 0 90 21l47 -197q-92 -53 -222 -53t-195 60t-64 198v620h-113v176h113v248h256v-248h151v-176h-151v-563q0 -86 88 -86z" />
    <glyph glyph-name="u" unicode="u" horiz-adv-x="1007" 
d="M633 307v737h258v-741q0 -155 -110 -239q-109 -84 -275 -84t-275 85t-108 238v741h256v-737q0 -49 37 -77t91 -28t90 28q36 26 36 77z" />
    <glyph glyph-name="v" unicode="v" horiz-adv-x="872" 
d="M301 1044l148 -737l124 737h267l-271 -1044h-243l-293 1044h268z" />
    <glyph glyph-name="w" unicode="w" horiz-adv-x="1292" 
d="M748 1044l170 -759l86 759h247l-209 -1044h-239l-154 690l-149 -690h-248l-215 1044h252l94 -765l160 765h205z" />
    <glyph glyph-name="x" unicode="x" horiz-adv-x="860" 
d="M23 1044h270l137 -370l135 370h277l-256 -536l266 -508h-268l-156 338l-154 -338h-266l266 508z" />
    <glyph glyph-name="y" unicode="y" horiz-adv-x="1005" 
d="M631 1044h258v-1169q-1 -166 -101 -257t-268 -91q-168 -1 -269 67t-126 193l246 66q8 -39 46 -71t83 -32q133 0 133 127v234q-70 -115 -210 -115t-220 86t-80 242v720h256v-733q0 -53 33 -82t88 -29t93 32t38 94v718z" />
    <glyph glyph-name="z" unicode="z" horiz-adv-x="745" 
d="M78 1044h567v-131l-309 -702h340v-211h-606v147l307 691h-299v206z" />
    <glyph glyph-name="braceleft" unicode="{" horiz-adv-x="612" 
d="M469 1548l100 -110q-113 -56 -159 -160t-33 -215l43 -367l-86 -90l90 -78l-47 -424q-14 -117 38 -219t165 -161l-105 -119q-186 76 -266 215t-57 295l55 401l-101 84l103 102l-57 357q-25 160 62 295t255 194z" />
    <glyph glyph-name="bar" unicode="|" horiz-adv-x="452" 
d="M123 -301v1694h207v-1694h-207z" />
    <glyph glyph-name="braceright" unicode="}" horiz-adv-x="641" 
d="M109 1436l86 104q176 -58 269 -198t66 -283l-61 -357l109 -102l-109 -84l61 -401q23 -147 -69 -293t-273 -209l-94 113q127 72 184 173q56 101 44 205l-52 428l92 74l-90 86l50 371q12 97 -43 201t-170 172z" />
    <glyph glyph-name="asciitilde" unicode="~" horiz-adv-x="806" 
d="M290 1253q-48 0 -102 -69l-94 102q78 139 193 139q47 0 136 -42t124 -42q63 2 94 68l104 -90q-57 -103 -98 -127t-85 -24t-134 42q-90 43 -138 43z" />
    <glyph glyph-name="uni00A0" unicode="&#xa0;" horiz-adv-x="483" 
 />
    <glyph glyph-name="exclamdown" unicode="&#xa1;" horiz-adv-x="516" 
d="M416 1055v-215h-262v215h262zM432 -358h-293l31 946h231z" />
    <glyph glyph-name="cent" unicode="&#xa2;" horiz-adv-x="839" 
d="M354 332q0 -132 170 -130q80 0 140 56l108 -178q-100 -98 -291 -98h-10l-41 -252l-158 26l41 248q-215 68 -215 297v438q0 152 94 234t257 90l38 268l166 -26l-45 -258q106 -29 164 -97l-104 -172q-64 60 -154 60q-160 0 -160 -129v-377z" />
    <glyph glyph-name="sterling" unicode="&#xa3;" horiz-adv-x="1034" 
d="M610 425q0 -61 -11 -107t-56 -95h418v-223h-879v143q162 10 218 81t52 200l-16 160h-250v182h236l-17 207q-2 207 149 321t404 117v-227q-301 0 -297 -217l21 -201h290v-182h-274q12 -99 12 -159z" />
    <glyph glyph-name="yen" unicode="&#xa5;" horiz-adv-x="1032" 
d="M100 422h297v100l-16 43h-283v121h242l-248 707h273l161 -619l168 619h271l-252 -707h260v-121h-303l-17 -45v-98h318v-115h-318v-307h-256v307h-297v115z" />
    <glyph glyph-name="brokenbar" unicode="&#xa6;" horiz-adv-x="344" 
d="M88 745v680h164v-680h-164zM88 -215v676h164v-676h-164z" />
    <glyph glyph-name="section" unicode="&#xa7;" horiz-adv-x="1124" 
d="M858 365q0 86 -61 136t-193 108t-233 128q-39 -8 -63 -44t-24 -80q1 -94 73 -145q48 -36 186 -96q137 -61 225 -122q34 6 62 43t28 72zM952 -68q0 -178 -116 -278t-295 -100q-129 0 -239 53t-171 145l119 117q33 -59 118 -103t162 -45q223 0 224 195q0 116 -187 222
q-61 36 -97 52t-99 46q-147 66 -215 148t-68 228q0 76 44 152t104 102q-47 76 -48 195q0 166 115 258t291 92q262 0 393 -170l-96 -125q-51 57 -129 92t-166 35t-147 -50q-59 -51 -59 -127t41 -118q24 -25 41 -41q48 -46 237 -121q165 -74 251 -166t87 -247
q0 -197 -148 -271q53 -76 53 -170z" />
    <glyph glyph-name="dieresis" unicode="&#xa8;" horiz-adv-x="778" 
d="M672 1397v-193h-187v193h187zM289 1397v-193h-185v193h185z" />
    <glyph glyph-name="copyright" unicode="&#xa9;" horiz-adv-x="1599" 
d="M798 918q-70 0 -126 -50q-57 -50 -58 -120v-97q0 -76 62 -123t145 -47q129 0 221 86l82 -118q-53 -57 -141 -93t-170 -34q-159 0 -267 92t-108 237v97q0 139 112 234t261 95q102 1 168 -31t135 -110l-92 -115q-34 43 -94 70t-130 27zM217 713q0 -250 169 -420t415 -170
q245 0 413 171t168 420t-168 422t-414 173t-414 -173q-169 -173 -169 -423zM88 715q0 305 206 515t505 210t505 -210t206 -514t-206 -511q-204 -207 -504 -207t-506 206t-206 511z" />
    <glyph glyph-name="ordfeminine" unicode="&#xaa;" horiz-adv-x="702" 
d="M449 965v77l-209 -28v-53q0 -29 30 -48q31 -18 70 -18q39 -1 74 19t35 51zM349 1409q118 0 188 -57t69 -172v-414h-104l-37 74q-59 -78 -161 -78t-160 51q-56 51 -56 141v136l367 53v24q0 111 -121 111q-33 0 -85 -15t-79 -30l-49 115q110 61 228 61z" />
    <glyph glyph-name="guillemotleft" unicode="&#xab;" horiz-adv-x="940" 
d="M481 84l-73 -84l-320 356l320 369l75 -78l-204 -287zM850 84l-74 -84l-317 356l317 369l74 -78l-203 -287z" />
    <glyph glyph-name="logicalnot" unicode="&#xac;" horiz-adv-x="909" 
d="M88 553v158h731v-344h-151v186h-580z" />
    <glyph glyph-name="registered" unicode="&#xae;" horiz-adv-x="1599" 
d="M670 969v-234h174q43 0 76 24t32 64v41q0 41 -32 73q-33 32 -76 32h-174zM1096 834q0 -74 -42 -124t-114 -71l193 -309h-166l-185 291h-112v-291h-144v768h338q98 0 165 -65t67 -163v-36zM217 713q0 -256 166 -423t418 -167t417 168q164 168 164 423t-165 425
q-166 170 -417 170t-417 -170t-166 -426zM88 715q0 313 203 519t508 206t508 -207t203 -518t-204 -514q-202 -203 -508 -203t-508 202t-202 515z" />
    <glyph glyph-name="macron" unicode="&#xaf;" horiz-adv-x="905" 
d="M799 1415v-110h-695v110h695z" />
    <glyph glyph-name="degree" unicode="&#xb0;" horiz-adv-x="733" 
d="M485 1092v98q0 40 -38 64q-37 24 -81 24t-82 -26t-38 -62v-98q2 -41 39 -65q37 -23 81 -23t82 24t37 64zM641 1171v-65q0 -110 -81 -174q-80 -64 -196 -64t-196 65t-80 173v65q0 109 79 173t198 69q117 -5 197 -69t79 -173z" />
    <glyph glyph-name="plusminus" unicode="&#xb1;" horiz-adv-x="1107" 
d="M88 0v156h930v-156h-930zM635 1116v-323h352v-170h-352v-347h-184v347h-338v170h338v323h184z" />
    <glyph glyph-name="twosuperior" unicode="&#xb2;" horiz-adv-x="819" 
d="M444 1411q119 0 187 -51t67 -154q0 -129 -157 -209q-15 -8 -51 -25t-71 -37q-57 -32 -65 -81h353v-156h-564v97q-1 102 53 161t166 115q147 61 148 115q0 68 -106 68t-205 -74l-62 118q117 113 307 113z" />
    <glyph glyph-name="threesuperior" unicode="&#xb3;" horiz-adv-x="706" 
d="M674 1212v-16q0 -61 -40 -102t-91 -56q53 -16 96 -58t43 -95v-33q0 -203 -281 -203q-106 0 -194 41t-125 113l106 82q23 -39 73 -64t108 -24q127 0 127 61v27q0 43 -39 67t-88 23h-121v127h114q123 0 123 80v18q-1 64 -123 64t-169 -72l-89 92q33 59 116 94t177 35
q277 0 277 -201z" />
    <glyph glyph-name="acute" unicode="&#xb4;" horiz-adv-x="542" 
d="M90 1165l215 316l160 -97l-252 -282z" />
    <glyph glyph-name="paragraph" unicode="&#xb6;" horiz-adv-x="1083" 
d="M928 1393v-1393h-135v1274h-166v-1274h-144v756h-86q-137 0 -223 76t-86 208v52q0 129 86 214t223 87h531z" />
    <glyph glyph-name="periodcentered" unicode="&#xb7;" horiz-adv-x="405" 
d="M129 408v245h262v-245h-262z" />
    <glyph glyph-name="cedilla" unicode="&#xb8;" horiz-adv-x="518" 
d="M416 -285q0 -154 -246 -237l-61 110q139 55 139 121q0 98 -139 127l34 164h146l-25 -88q152 -61 152 -197z" />
    <glyph glyph-name="onesuperior" unicode="&#xb9;" horiz-adv-x="550" 
d="M266 696v521h-209v176h402v-697h-193z" />
    <glyph glyph-name="ordmasculine" unicode="&#xba;" horiz-adv-x="755" 
d="M504 1004v174q-2 40 -40 64t-86 24t-87 -26t-39 -64v-142q2 -117 127 -116q47 0 86 22t39 64zM376 1409q118 0 203 -68t85 -174v-149q0 -110 -85 -176t-203 -66t-203 68t-85 176v147q0 106 85 174t203 68z" />
    <glyph glyph-name="guillemotright" unicode="&#xbb;" horiz-adv-x="929" 
d="M438 84l201 276l-203 287l74 78l321 -369l-321 -356zM70 84l200 276l-200 287l73 78l320 -369l-320 -356z" />
    <glyph glyph-name="onequarter" unicode="&#xbc;" horiz-adv-x="1361" 
d="M1022 289v268h-16l-156 -268h172zM1204 735v-446h117v-144h-117v-141h-182v141h-363v109l304 481h241zM330 0h-224l863 1393h213zM272 696v521h-209v176h402v-697h-193z" />
    <glyph glyph-name="onehalf" unicode="&#xbd;" horiz-adv-x="1323" 
d="M1042 698q119 0 187 -51t67 -153q0 -129 -157 -209l-50 -25t-72 -37q-58 -32 -65 -82h353v-155h-564v96q-1 102 53 162t167 114q147 61 147 115q0 68 -106 68t-205 -74l-62 119q117 112 307 112zM299 0h-223l862 1393h213zM272 696v521h-209v176h402v-697h-193z" />
    <glyph glyph-name="threequarters" unicode="&#xbe;" horiz-adv-x="1472" 
d="M1167 287v268h-16l-156 -268h172zM1350 733v-446h116v-144h-116v-141h-183v141h-362v109l303 481h242zM475 0h-223l862 1393h213zM645 1212v-16q0 -61 -40 -102t-91 -56q53 -16 96 -58t43 -95v-33q0 -203 -280 -203q-107 0 -195 41t-125 113l107 82q22 -39 72 -64
t108 -24q127 0 127 61v27q0 43 -39 67t-88 23h-121v127h115q123 0 123 80v18q0 64 -123 64t-170 -72l-88 92q34 59 116 94t177 35q276 0 276 -201z" />
    <glyph glyph-name="questiondown" unicode="&#xbf;" horiz-adv-x="845" 
d="M598 1057v-248h-301v248h301zM434 -367q-390 0 -389 312v65q-1 74 21 106t28 44q6 10 43 51t87 81q48 42 78 90t30 128v98h248v-131q0 -125 -136 -247t-137 -193v-60q0 -117 154 -116q119 0 254 100l96 -180q-189 -148 -377 -148z" />
    <glyph glyph-name="Agrave" unicode="&#xc0;" horiz-adv-x="1069" 
d="M283 1798l163 100l211 -313l-120 -76zM424 545h225l-108 530zM401 1405h283l348 -1405h-270l-66 334h-319l-72 -334h-274z" />
    <glyph glyph-name="Aacute" unicode="&#xc1;" horiz-adv-x="1069" 
d="M418 1565l215 315l160 -96l-252 -283zM424 545h225l-108 530zM401 1405h283l348 -1405h-270l-66 334h-319l-72 -334h-274z" />
    <glyph glyph-name="Acircumflex" unicode="&#xc2;" horiz-adv-x="1069" 
d="M252 1597l278 185l283 -191l-78 -96l-203 117l-204 -115zM424 545h225l-108 530zM401 1405h283l348 -1405h-270l-66 334h-319l-72 -334h-274z" />
    <glyph glyph-name="Atilde" unicode="&#xc3;" horiz-adv-x="1069" 
d="M401 1579q-49 0 -100 -70l-94 103q78 139 192 139q47 0 137 -42t123 -42q63 2 95 68l104 -90q-57 -104 -98 -128t-85 -24q-45 0 -135 43t-139 43zM424 545h225l-108 530zM401 1405h283l348 -1405h-270l-66 334h-319l-72 -334h-274z" />
    <glyph glyph-name="Adieresis" unicode="&#xc4;" horiz-adv-x="1069" 
d="M817 1724v-192h-186v192h186zM434 1724v-192h-184v192h184zM424 545h225l-108 530zM401 1405h283l348 -1405h-270l-66 334h-319l-72 -334h-274z" />
    <glyph glyph-name="Aring" unicode="&#xc5;" horiz-adv-x="1069" 
d="M455 1654q1 -34 23 -57t54 -23t55 24q23 22 23 56t-24 58t-55 25q-32 -1 -54 -25t-22 -58zM532 1497q-64 0 -111 47q-46 47 -46 114q0 68 45 112q44 44 110 44t113 -44q47 -46 47 -112t-47 -114q-47 -47 -111 -47zM424 545h225l-108 530zM401 1405h283l348 -1405h-270
l-66 334h-319l-72 -334h-274z" />
    <glyph glyph-name="AE" unicode="&#xc6;" horiz-adv-x="1742" 
d="M913 537v596l-315 -596h315zM1538 608h-371v-385h502v-223h-756v326h-409l-185 -326h-296l802 1393h799v-228h-457v-346h371v-211z" />
    <glyph glyph-name="Ccedilla" unicode="&#xc7;" horiz-adv-x="993" 
d="M575 1190q-92 0 -142 -52t-50 -145v-602q0 -92 55 -142t146 -50q141 0 223 75l108 -165q-109 -113 -301 -127l-18 -70q152 -61 152 -197q0 -154 -246 -237l-62 110q139 55 140 121q0 98 -140 127l31 150q-156 23 -250 123t-94 268v633q0 184 122 294t308 109
q229 0 363 -139l-117 -176q-101 92 -228 92z" />
    <glyph glyph-name="Egrave" unicode="&#xc8;" horiz-adv-x="935" 
d="M238 1786l163 100l211 -313l-120 -76zM678 598h-285v-375h447v-223h-701v1393h654v-228h-400v-348h285v-219z" />
    <glyph glyph-name="Eacute" unicode="&#xc9;" horiz-adv-x="935" 
d="M375 1552l215 316l160 -96l-252 -283zM678 598h-285v-375h447v-223h-701v1393h654v-228h-400v-348h285v-219z" />
    <glyph glyph-name="Ecircumflex" unicode="&#xca;" horiz-adv-x="935" 
d="M205 1585l278 184l283 -190l-78 -96l-203 116l-204 -114zM678 598h-285v-375h447v-223h-701v1393h654v-228h-400v-348h285v-219z" />
    <glyph glyph-name="Edieresis" unicode="&#xcb;" horiz-adv-x="935" 
d="M772 1710v-192h-186v192h186zM389 1710v-192h-184v192h184zM678 598h-285v-375h447v-223h-701v1393h654v-228h-400v-348h285v-219z" />
    <glyph glyph-name="Igrave" unicode="&#xcc;" horiz-adv-x="587" 
d="M47 1786l164 100l211 -313l-121 -76zM164 0v1393h256v-1393h-256z" />
    <glyph glyph-name="Iacute" unicode="&#xcd;" horiz-adv-x="587" 
d="M176 1552l215 316l160 -96l-252 -283zM164 0v1393h256v-1393h-256z" />
    <glyph glyph-name="Icircumflex" unicode="&#xce;" horiz-adv-x="587" 
d="M14 1585l279 184l282 -190l-77 -96l-203 116l-205 -114zM164 0v1393h256v-1393h-256z" />
    <glyph glyph-name="Idieresis" unicode="&#xcf;" horiz-adv-x="587" 
d="M580 1710v-192h-187v192h187zM197 1710v-192h-185v192h185zM164 0v1393h256v-1393h-256z" />
    <glyph glyph-name="Eth" unicode="&#xd0;" horiz-adv-x="1218" 
d="M854 418v596q0 80 -67 130t-181 50h-123v-389h199v-199h-201v-383h123q250 0 250 195zM66 606v199h161v616h379q207 0 356 -111q148 -112 148 -280v-629q0 -185 -141 -293t-365 -108h-377v606h-161z" />
    <glyph glyph-name="Ntilde" unicode="&#xd1;" horiz-adv-x="1193" 
d="M463 1565q-49 0 -101 -70l-94 102q78 139 193 140q47 0 136 -42t124 -42q63 2 94 67l105 -90q-56 -104 -98 -128t-86 -23q-44 0 -134 43t-139 43zM768 1393h236v-1393h-242l-438 938v-938h-234v1393h244l434 -951v951z" />
    <glyph glyph-name="Ograve" unicode="&#xd2;" horiz-adv-x="1126" 
d="M311 1806l164 101l211 -314l-121 -75zM764 385v608q0 89 -51 141t-133 52h-33q-84 0 -135 -50t-52 -141v-610q0 -88 50 -135t139 -47h31q84 0 134 48t50 134zM580 1413q192 1 316 -111t124 -301v-620q0 -189 -121 -295t-319 -106h-31q-201 0 -323 104t-122 297v620
q0 189 124 301t319 111h33z" />
    <glyph glyph-name="Oacute" unicode="&#xd3;" horiz-adv-x="1126" 
d="M446 1573l216 315l159 -96l-252 -283zM764 385v608q0 89 -51 141t-133 52h-33q-84 0 -135 -50t-52 -141v-610q0 -88 50 -135t139 -47h31q84 0 134 48t50 134zM580 1413q192 1 316 -111t124 -301v-620q0 -189 -121 -295t-319 -106h-31q-201 0 -323 104t-122 297v620
q0 189 124 301t319 111h33z" />
    <glyph glyph-name="Ocircumflex" unicode="&#xd4;" horiz-adv-x="1126" 
d="M279 1606l278 184l283 -191l-78 -96l-203 117l-205 -115zM764 385v608q0 89 -51 141t-133 52h-33q-84 0 -135 -50t-52 -141v-610q0 -88 50 -135t139 -47h31q84 0 134 48t50 134zM580 1413q192 1 316 -111t124 -301v-620q0 -189 -121 -295t-319 -106h-31q-201 0 -323 104
t-122 297v620q0 189 124 301t319 111h33z" />
    <glyph glyph-name="Otilde" unicode="&#xd5;" horiz-adv-x="1126" 
d="M430 1585q-49 0 -100 -69l-94 102q78 139 192 139q47 0 136 -42t124 -42q63 2 94 68l105 -90q-57 -103 -99 -127t-84 -24q-44 0 -134 42q-90 43 -140 43zM764 385v608q0 89 -51 141t-133 52h-33q-84 0 -135 -50t-52 -141v-610q0 -88 50 -135t139 -47h31q84 0 134 48
t50 134zM580 1413q192 1 316 -111t124 -301v-620q0 -189 -121 -295t-319 -106h-31q-201 0 -323 104t-122 297v620q0 189 124 301t319 111h33z" />
    <glyph glyph-name="Odieresis" unicode="&#xd6;" horiz-adv-x="1126" 
d="M846 1731v-193h-187v193h187zM463 1731v-193h-184v193h184zM764 385v608q0 89 -51 141t-133 52h-33q-84 0 -135 -50t-52 -141v-610q0 -88 50 -135t139 -47h31q84 0 134 48t50 134zM580 1413q192 1 316 -111t124 -301v-620q0 -189 -121 -295t-319 -106h-31
q-201 0 -323 104t-122 297v620q0 189 124 301t319 111h33z" />
    <glyph glyph-name="multiply" unicode="&#xd7;" horiz-adv-x="1165" 
d="M850 1004h205l-361 -494l377 -510h-215l-268 373l-269 -373h-215l379 510l-362 494h207l260 -359z" />
    <glyph glyph-name="Oslash" unicode="&#xd8;" horiz-adv-x="1069" 
d="M377 995v-567l336 719q-49 39 -117 39h-33q-84 0 -135 -50t-51 -141zM780 385v586l-340 -733q43 -35 125 -35h31q84 0 134 48t50 134zM596 1413q121 0 219 -47l90 193h148l-127 -273q111 -111 110 -285v-620q0 -189 -121 -295t-319 -106h-31q-127 0 -225 43l-78 -170
h-153l114 247q-102 106 -102 281v620q0 189 124 301t318 111h33z" />
    <glyph glyph-name="Ugrave" unicode="&#xd9;" horiz-adv-x="1183" 
d="M340 1786l164 100l211 -313l-121 -76zM786 387v1006h256v-1002q0 -197 -126 -305t-324 -106q-198 0 -327 106q-130 106 -130 305v1002h256v-1006q1 -88 59 -136t142 -48t139 49t55 135z" />
    <glyph glyph-name="Uacute" unicode="&#xda;" horiz-adv-x="1179" 
d="M475 1552l215 316l160 -96l-252 -283zM786 387v1006h256v-1002q0 -197 -126 -305t-324 -106q-198 0 -327 106q-130 106 -130 305v1002h256v-1006q1 -88 59 -136t142 -48t139 49t55 135z" />
    <glyph glyph-name="Ucircumflex" unicode="&#xdb;" horiz-adv-x="1179" 
d="M307 1585l279 184l282 -190l-77 -96l-203 116l-205 -114zM786 387v1006h256v-1002q0 -197 -126 -305t-324 -106q-198 0 -327 106q-130 106 -130 305v1002h256v-1006q1 -88 59 -136t142 -48t139 49t55 135z" />
    <glyph glyph-name="Udieresis" unicode="&#xdc;" horiz-adv-x="1179" 
d="M872 1710v-192h-186v192h186zM489 1710v-192h-184v192h184zM786 387v1006h256v-1002q0 -197 -126 -305t-324 -106q-198 0 -327 106q-130 106 -130 305v1002h256v-1006q1 -88 59 -136t142 -48t139 49t55 135z" />
    <glyph glyph-name="Yacute" unicode="&#xdd;" horiz-adv-x="968" 
d="M360 1552l215 316l160 -96l-252 -283zM344 0v522l-305 871h272l162 -619l168 619h270l-311 -873v-520h-256z" />
    <glyph glyph-name="Thorn" unicode="&#xde;" horiz-adv-x="985" 
d="M618 700v41q0 66 -40 119q-41 53 -93 53h-120v-354h122q49 0 91 40q40 40 40 101zM365 1135h133q170 0 273 -108t103 -286v-36q0 -179 -100 -275t-276 -96h-133v-334h-259v1393h259v-258z" />
    <glyph glyph-name="agrave" unicode="&#xe0;" 
d="M532 295v129q0 47 -35 74q-36 26 -78 26t-68 -24t-25 -62v-157q0 -39 26 -63t67 -24q42 0 78 27q35 27 35 74zM487 1061q145 0 225 -80t79 -233v-748h-211l-21 84q-45 -54 -91 -72t-114 -18q-135 0 -209 73t-73 203v154q0 131 73 204q74 72 202 72t192 -65v106
q0 105 -119 105t-230 -60l-69 183q159 92 366 92zM174 1491l164 100l211 -313l-121 -76z" />
    <glyph glyph-name="aacute" unicode="&#xe1;" 
d="M532 295v129q0 47 -35 74q-36 26 -78 26t-68 -24t-25 -62v-157q0 -39 26 -63t67 -24q42 0 78 27q35 27 35 74zM487 1061q145 0 225 -80t79 -233v-748h-211l-21 84q-45 -54 -91 -72t-114 -18q-135 0 -209 73t-73 203v154q0 131 73 204q74 72 202 72t192 -65v106
q0 105 -119 105t-230 -60l-69 183q159 92 366 92zM309 1260l215 315l160 -96l-252 -283z" />
    <glyph glyph-name="acircumflex" unicode="&#xe2;" 
d="M532 295v129q0 47 -35 74q-36 26 -78 26t-68 -24t-25 -62v-157q0 -39 26 -63t67 -24q42 0 78 27q35 27 35 74zM487 1061q145 0 225 -80t79 -233v-748h-211l-21 84q-45 -54 -91 -72t-114 -18q-135 0 -209 73t-73 203v154q0 131 73 204q74 72 202 72t192 -65v106
q0 105 -119 105t-230 -60l-69 183q159 92 366 92zM141 1292l279 185l282 -191l-77 -96l-203 117l-205 -115z" />
    <glyph glyph-name="atilde" unicode="&#xe3;" 
d="M532 295v129q0 47 -35 74q-36 26 -78 26t-68 -24t-25 -62v-157q0 -39 26 -63t67 -24q42 0 78 27q35 27 35 74zM487 1061q145 0 225 -80t79 -233v-748h-211l-21 84q-45 -54 -91 -72t-114 -18q-135 0 -209 73t-73 203v154q0 131 73 204q74 72 202 72t192 -65v106
q0 105 -119 105t-230 -60l-69 183q159 92 366 92zM295 1272q-49 0 -100 -70l-95 103q78 139 193 139q47 0 136 -42t124 -42q63 2 94 67l105 -90q-56 -103 -98 -127t-86 -24t-134 43t-139 43z" />
    <glyph glyph-name="adieresis" unicode="&#xe4;" 
d="M532 295v129q0 47 -35 74q-36 26 -78 26t-68 -24t-25 -62v-157q0 -39 26 -63t67 -24q42 0 78 27q35 27 35 74zM487 1061q145 0 225 -80t79 -233v-748h-211l-21 84q-45 -54 -91 -72t-114 -18q-135 0 -209 73t-73 203v154q0 131 73 204q74 72 202 72t192 -65v106
q0 105 -119 105t-230 -60l-69 183q159 92 366 92zM709 1417v-192h-187v192h187zM326 1417v-192h-185v192h185z" />
    <glyph glyph-name="aring" unicode="&#xe5;" 
d="M532 295v129q0 47 -35 74q-36 26 -78 26t-68 -24t-25 -62v-157q0 -39 26 -63t67 -24q42 0 78 27q35 27 35 74zM487 1061q145 0 225 -80t79 -233v-748h-211l-21 84q-45 -54 -91 -72t-114 -18q-135 0 -209 73t-73 203v154q0 131 73 204q74 72 202 72t192 -65v106
q0 105 -119 105t-230 -60l-69 183q159 92 366 92zM500 1347q0 35 -24 59t-56 24t-54 -24t-22 -59q0 -34 23 -57q23 -22 55 -22t54 22q24 22 24 57zM420 1507q66 0 112 -45q46 -46 48 -112q0 -66 -47 -113t-111 -47t-112 47q-46 47 -46 114t45 111t111 45z" />
    <glyph glyph-name="ae" unicode="&#xe6;" horiz-adv-x="1353" 
d="M524 289v141l-223 -41v-106q0 -94 96 -95q49 0 88 26t39 75zM927 866q-52 0 -90 -39t-38 -98v-115l245 35v92q0 63 -32 95q-33 30 -85 30zM799 352q0 -68 48 -106q49 -38 119 -39t137 25t103 57l88 -168q-129 -135 -333 -135q-258 0 -340 161q-76 -162 -275 -161
q-131 0 -209 78t-78 212v222l463 73v131q0 154 -112 154q-106 0 -238 -49l-49 174q141 94 310 94t235 -106q84 109 264 108q144 0 244 -84t100 -264v-184l-477 -64v-129z" />
    <glyph glyph-name="ccedilla" unicode="&#xe7;" horiz-adv-x="815" 
d="M354 332q0 -132 170 -130q80 0 140 56l108 -178q-94 -92 -264 -98l-19 -70q152 -61 152 -197q0 -154 -246 -237l-61 110q139 55 139 121q0 98 -139 127l33 156q-125 24 -197 102t-72 207v438q0 162 104 244t283 82q86 0 165 -32t122 -83l-104 -172q-64 60 -154 60
q-160 0 -160 -129v-377z" />
    <glyph glyph-name="egrave" unicode="&#xe8;" horiz-adv-x="913" 
d="M209 1493l164 100l211 -313l-121 -76zM466 852q-50 0 -87 -32t-37 -83v-106h248v108q0 49 -37 81t-87 32zM524 205q131 0 211 65l88 -174q-129 -108 -309 -108t-304 91t-124 255v399q0 145 115 237t271 93q156 0 257 -90q100 -90 100 -240v-280h-487v-117q0 -63 51 -97
t131 -34z" />
    <glyph glyph-name="eacute" unicode="&#xe9;" horiz-adv-x="913" 
d="M340 1260l215 315l160 -96l-252 -283zM466 852q-50 0 -87 -32t-37 -83v-106h248v108q0 49 -37 81t-87 32zM524 205q131 0 211 65l88 -174q-129 -108 -309 -108t-304 91t-124 255v399q0 145 115 237t271 93q156 0 257 -90q100 -90 100 -240v-280h-487v-117q0 -63 51 -97
t131 -34z" />
    <glyph glyph-name="ecircumflex" unicode="&#xea;" horiz-adv-x="913" 
d="M174 1292l279 185l282 -191l-78 -96l-202 117l-205 -115zM466 852q-50 0 -87 -32t-37 -83v-106h248v108q0 49 -37 81t-87 32zM524 205q131 0 211 65l88 -174q-129 -108 -309 -108t-304 91t-124 255v399q0 145 115 237t271 93q156 0 257 -90q100 -90 100 -240v-280h-487
v-117q0 -63 51 -97t131 -34z" />
    <glyph glyph-name="edieresis" unicode="&#xeb;" horiz-adv-x="913" 
d="M739 1419v-192h-186v192h186zM356 1419v-192h-184v192h184zM466 852q-50 0 -87 -32t-37 -83v-106h248v108q0 49 -37 81t-87 32zM524 205q131 0 211 65l88 -174q-129 -108 -309 -108t-304 91t-124 255v399q0 145 115 237t271 93q156 0 257 -90q100 -90 100 -240v-280h-487
v-117q0 -63 51 -97t131 -34z" />
    <glyph glyph-name="igrave" unicode="&#xec;" horiz-adv-x="520" 
d="M6 1473l164 100l211 -313l-121 -76zM123 0v1057h256v-1057h-256z" />
    <glyph glyph-name="iacute" unicode="&#xed;" horiz-adv-x="520" 
d="M135 1239l215 315l160 -96l-252 -282zM123 0v1057h256v-1057h-256z" />
    <glyph glyph-name="icircumflex" unicode="&#xee;" horiz-adv-x="520" 
d="M-27 1272l279 184l283 -190l-78 -97l-203 117l-205 -115zM123 0v1057h256v-1057h-256z" />
    <glyph glyph-name="idieresis" unicode="&#xef;" horiz-adv-x="520" 
d="M539 1399v-193h-187v193h187zM156 1399v-193h-185v193h185zM123 0v1057h256v-1057h-256z" />
    <glyph glyph-name="eth" unicode="&#xf0;" horiz-adv-x="1003" 
d="M629 344v223q0 74 -41 121t-95 47q-53 0 -91 -39t-37 -98v-254q-1 -61 37 -101t92 -40t95 40q40 40 40 101zM883 674v-359q0 -151 -111 -243q-110 -92 -276 -92t-278 92t-112 243v312q0 143 88 239t228 97q56 0 114 -22t89 -62q-49 174 -203 301l-277 -125l-59 116
l211 97q-94 66 -203 92l109 180q204 -59 356 -178l256 117l62 -121l-209 -94q215 -268 215 -590z" />
    <glyph glyph-name="ntilde" unicode="&#xf1;" horiz-adv-x="999" 
d="M369 1274q-49 0 -101 -70l-94 103q78 139 193 139q47 0 136 -42t124 -42q63 2 94 68l104 -91q-57 -103 -98 -127t-85 -24t-134 43t-139 43zM602 1063q283 0 283 -334v-729h-256v698q0 141 -107 142q-55 0 -101 -45t-46 -109v-686h-256v1044h203l22 -141q100 160 258 160z
" />
    <glyph glyph-name="ograve" unicode="&#xf2;" horiz-adv-x="942" 
d="M219 1493l164 100l211 -313l-121 -76zM596 309v426q0 47 -36 75t-88 28t-91 -28t-39 -75v-426q0 -47 38 -76t90 -29t89 30q37 28 37 75zM86 739q0 150 108 237t281 87q171 0 275 -86t104 -238v-434q0 -147 -111 -234t-271 -87t-274 86q-112 86 -112 235v434z" />
    <glyph glyph-name="oacute" unicode="&#xf3;" horiz-adv-x="942" 
d="M354 1260l215 315l160 -96l-252 -283zM596 309v426q0 47 -36 75t-88 28t-91 -28t-39 -75v-426q0 -47 38 -76t90 -29t89 30q37 28 37 75zM86 739q0 150 108 237t281 87q171 0 275 -86t104 -238v-434q0 -147 -111 -234t-271 -87t-274 86q-112 86 -112 235v434z" />
    <glyph glyph-name="ocircumflex" unicode="&#xf4;" horiz-adv-x="942" 
d="M186 1292l279 185l283 -191l-78 -96l-203 117l-205 -115zM596 309v426q0 47 -36 75t-88 28t-91 -28t-39 -75v-426q0 -47 38 -76t90 -29t89 30q37 28 37 75zM86 739q0 150 108 237t281 87q171 0 275 -86t104 -238v-434q0 -147 -111 -234t-271 -87t-274 86
q-112 86 -112 235v434z" />
    <glyph glyph-name="otilde" unicode="&#xf5;" horiz-adv-x="942" 
d="M336 1274q-49 0 -100 -70l-95 103q78 139 193 139q47 0 136 -42t124 -42q63 2 94 68l105 -91q-57 -103 -99 -127t-85 -24q-44 0 -134 43t-139 43zM596 309v426q0 47 -36 75t-88 28t-91 -28t-39 -75v-426q0 -47 38 -76t90 -29t89 30q37 28 37 75zM86 739q0 150 108 237
t281 87q171 0 275 -86t104 -238v-434q0 -147 -111 -234t-271 -87t-274 86q-112 86 -112 235v434z" />
    <glyph glyph-name="odieresis" unicode="&#xf6;" horiz-adv-x="942" 
d="M754 1419v-192h-187v192h187zM371 1419v-192h-185v192h185zM596 309v426q0 47 -36 75t-88 28t-91 -28t-39 -75v-426q0 -47 38 -76t90 -29t89 30q37 28 37 75zM86 739q0 150 108 237t281 87q171 0 275 -86t104 -238v-434q0 -147 -111 -234t-271 -87t-274 86
q-112 86 -112 235v434z" />
    <glyph glyph-name="divide" unicode="&#xf7;" horiz-adv-x="1361" 
d="M805 1006v-238h-242v238h242zM563 121v235h242v-235h-242zM88 489v156h1182v-156h-1182z" />
    <glyph glyph-name="oslash" unicode="&#xf8;" horiz-adv-x="987" 
d="M612 309v314l-233 -373q35 -45 97 -45q62 1 99 29t37 75zM358 735v-315l236 371q-34 47 -96 47t-101 -28t-39 -75zM102 739q0 150 108 237t266 87q156 0 251 -59l82 129h123l-125 -199q63 -80 63 -195v-434q0 -147 -110 -234t-262 -87q-150 0 -248 61l-92 -147h-129
l137 219q-63 76 -64 188v434z" />
    <glyph glyph-name="ugrave" unicode="&#xf9;" horiz-adv-x="1009" 
d="M260 1473l164 100l211 -313l-121 -76zM633 307v737h258v-741q0 -155 -110 -239q-109 -84 -275 -84t-275 85t-108 238v741h256v-737q0 -49 37 -77t91 -28t90 28q36 26 36 77z" />
    <glyph glyph-name="uacute" unicode="&#xfa;" horiz-adv-x="1009" 
d="M393 1239l215 315l160 -96l-252 -282zM633 307v737h258v-741q0 -155 -110 -239q-109 -84 -275 -84t-275 85t-108 238v741h256v-737q0 -49 37 -77t91 -28t90 28q36 26 36 77z" />
    <glyph glyph-name="ucircumflex" unicode="&#xfb;" horiz-adv-x="1009" 
d="M225 1272l279 184l282 -190l-77 -97l-203 117l-205 -115zM633 307v737h258v-741q0 -155 -110 -239q-109 -84 -275 -84t-275 85t-108 238v741h256v-737q0 -49 37 -77t91 -28t90 28q36 26 36 77z" />
    <glyph glyph-name="udieresis" unicode="&#xfc;" horiz-adv-x="1009" 
d="M791 1399v-193h-187v193h187zM408 1399v-193h-185v193h185zM633 307v737h258v-741q0 -155 -110 -239q-109 -84 -275 -84t-275 85t-108 238v741h256v-737q0 -49 37 -77t91 -28t90 28q36 26 36 77z" />
    <glyph glyph-name="yacute" unicode="&#xfd;" horiz-adv-x="882" 
d="M324 1247l215 316l159 -97l-252 -282zM301 -104l29 84l-295 1064h272l152 -718l123 718h270l-303 -1165q-41 -161 -153 -237t-257 -78l-33 186q45 2 109 41q63 39 86 105z" />
    <glyph glyph-name="thorn" unicode="&#xfe;" horiz-adv-x="1071" 
d="M686 338v379q0 69 -38 107t-95 38t-99 -48t-42 -124v-332q0 -76 41 -122t98 -48q57 0 96 41t39 109zM623 1073q137 0 227 -92t90 -242v-415q0 -154 -90 -249t-240 -95t-229 116v-557h-242v1872h258l-2 -465q92 127 228 127z" />
    <glyph glyph-name="ydieresis" unicode="&#xff;" horiz-adv-x="894" 
d="M729 1403v-193h-186v193h186zM346 1403v-193h-184v193h184zM307 -104l29 84l-295 1064h272l152 -718l123 718h270l-303 -1165q-41 -161 -153 -237t-257 -78l-32 186q45 2 108 41t86 105z" />
    <glyph glyph-name="Abreve" unicode="&#x102;" horiz-adv-x="1069" 
d="M529 1495q-81 0 -153 47t-104 127l115 37q43 -104 142 -104t143 104l116 -37q-34 -80 -106 -127t-153 -47zM424 545h225l-108 530zM401 1405h283l348 -1405h-270l-66 334h-319l-72 -334h-274z" />
    <glyph glyph-name="abreve" unicode="&#x103;" 
d="M423 1176q-81 0 -153 47t-104 127l115 36q43 -104 142 -104t142 104l117 -36q-34 -80 -106 -127t-153 -47zM532 295v172l-206 -45v-141q0 -39 26 -63t67 -24q42 0 78 27q35 27 35 74zM487 1061q145 0 225 -80t79 -233v-748h-211l-21 84q-45 -54 -91 -72t-114 -18
q-135 0 -209 73t-73 203v269l467 92v110q0 88 -99 88q-53 0 -129 -20t-112 -43l-68 182q166 113 356 113z" />
    <glyph glyph-name="Aogonek" unicode="&#x104;" horiz-adv-x="1089" 
d="M428 545h225l-108 530zM780 -313h273v-152h-488q-4 49 -4 72q-1 141 59 231t146 121l-2 47l-64 328h-319l-72 -334h-274l371 1405h282l348 -1405h-71l4 -139q-182 -12 -189 -154v-20z" />
    <glyph glyph-name="aogonek" unicode="&#x105;" horiz-adv-x="917" 
d="M532 295v172l-206 -45v-141q0 -39 26 -63t67 -24q42 0 78 27q35 27 35 74zM487 1061q145 0 225 -80t79 -233v-748h-13l4 -127q-182 -12 -188 -154v-20h272v-152h-487q-4 49 -4 72q0 139 59 230t146 122l-2 35l-19 78q-45 -54 -91 -72t-114 -18q-135 0 -209 73t-73 203
v269l467 92v110q0 88 -99 88q-53 0 -129 -20t-112 -43l-68 182q166 113 356 113z" />
    <glyph glyph-name="Cacute" unicode="&#x106;" horiz-adv-x="931" 
d="M391 1569l215 315l160 -96l-252 -283zM555 1190q-92 0 -142 -52t-51 -145v-602q0 -92 56 -142t145 -50q141 0 223 75l109 -165q-127 -129 -338 -129t-331 103t-120 294v633q0 184 122 294t309 109q229 0 362 -139l-117 -176q-100 92 -227 92z" />
    <glyph glyph-name="cacute" unicode="&#x107;" horiz-adv-x="815" 
d="M326 1241l215 315l159 -96l-251 -282zM354 332q0 -132 170 -130q80 0 140 56l108 -178q-100 -98 -282 -98t-286 80q-105 80 -106 239v438q0 162 104 244t283 82q86 0 165 -32t122 -83l-104 -172q-64 60 -154 60q-160 0 -160 -129v-377z" />
    <glyph glyph-name="Ccaron" unicode="&#x10c;" horiz-adv-x="931" 
d="M778 1686l-276 -185l-279 195l78 96l199 -109l198 109zM555 1190q-92 0 -142 -52t-51 -145v-602q0 -92 56 -142t145 -50q141 0 223 75l109 -165q-127 -129 -338 -129t-331 103t-120 294v633q0 184 122 294t309 109q229 0 362 -139l-117 -176q-100 92 -227 92z" />
    <glyph glyph-name="ccaron" unicode="&#x10d;" horiz-adv-x="815" 
d="M711 1360l-277 -184l-278 194l77 96l199 -108l199 108zM354 332q0 -132 170 -130q80 0 140 56l108 -178q-100 -98 -282 -98t-286 80q-105 80 -106 239v438q0 162 104 244t283 82q86 0 165 -32t122 -83l-104 -172q-64 60 -154 60q-160 0 -160 -129v-377z" />
    <glyph glyph-name="Dcaron" unicode="&#x10e;" horiz-adv-x="1099" 
d="M836 1667l-277 -184l-278 194l77 97l199 -109l199 109zM723 430v528q0 100 -60 154t-155 53h-117v-942h101q102 -1 166 51t65 156zM139 1393h369q213 0 342 -111t129 -328v-520q0 -214 -137 -324t-350 -110h-353v1393z" />
    <glyph glyph-name="dcaron" unicode="&#x10f;" horiz-adv-x="1280" 
d="M1038 1452h215v-55q1 -109 -29 -196t-60 -126t-72 -82l-131 70q78 113 77 264v125zM596 313v420q0 59 -38 91t-93 32t-88 -29t-33 -82v-440q0 -111 125 -110q51 1 89 31t38 87zM598 1413h256v-1413h-215l-39 102q-64 -118 -208 -118t-224 86t-80 243v420q0 156 81 244
t218 88t211 -117v465z" />
    <glyph glyph-name="Dcroat" unicode="&#x110;" horiz-adv-x="1107" 
d="M723 430v528q0 100 -60 154t-155 53h-117v-379h193v-178h-193v-385h101q102 -1 166 51t65 156zM31 608v178h108v607h369q213 0 342 -111t129 -328v-520q0 -214 -137 -324t-350 -110h-353v608h-108z" />
    <glyph glyph-name="dcroat" unicode="&#x111;" horiz-adv-x="966" 
d="M598 313v420q0 59 -38 91t-93 32t-88 -29t-33 -82v-440q0 -111 125 -110q51 1 89 31t38 87zM369 1176v141h231v96h256v-96h84v-141h-84v-1176h-215l-39 102q-64 -118 -208 -118t-224 86t-80 243v420q0 156 81 244t218 88t211 -117v228h-231z" />
    <glyph glyph-name="Eogonek" unicode="&#x118;" horiz-adv-x="944" 
d="M678 598h-285v-375h447v-223h-174l4 -139q-182 -12 -189 -154v-20h273v-152h-488q-4 49 -4 72q0 141 60 231t145 121l-2 41h-326v1393h654v-228h-400v-348h285v-219z" />
    <glyph glyph-name="eogonek" unicode="&#x119;" horiz-adv-x="919" 
d="M466 852q-50 0 -87 -32t-37 -83v-106h248v108q0 49 -37 81t-87 32zM524 205q131 0 211 65l88 -174q-96 -82 -217 -100l4 -135q-182 -12 -188 -154v-20h272v-152h-487q-4 49 -4 72q0 141 59 231t146 121l-2 37q-139 25 -230 113q-90 88 -90 225v399q0 145 115 237t271 93
q156 0 257 -90q100 -90 100 -240v-280h-487v-117q0 -63 51 -97t131 -34z" />
    <glyph glyph-name="Ecaron" unicode="&#x11a;" horiz-adv-x="935" 
d="M764 1665l-277 -184l-278 194l78 97l198 -109l199 109zM678 598h-285v-375h447v-223h-701v1393h654v-228h-400v-348h285v-219z" />
    <glyph glyph-name="ecaron" unicode="&#x11b;" horiz-adv-x="913" 
d="M731 1360l-276 -184l-279 194l78 96l199 -108l198 108zM466 852q-50 0 -87 -32t-37 -83v-106h248v108q0 49 -37 81t-87 32zM524 205q131 0 211 65l88 -174q-129 -108 -309 -108t-304 91t-124 255v399q0 145 115 237t271 93q156 0 257 -90q100 -90 100 -240v-280h-487
v-117q0 -63 51 -97t131 -34z" />
    <glyph glyph-name="dotlessi" unicode="&#x131;" horiz-adv-x="520" 
d="M123 0v1057h256v-1057h-256z" />
    <glyph glyph-name="Lacute" unicode="&#x139;" horiz-adv-x="874" 
d="M229 1530l215 315l160 -96l-252 -283zM139 1393h254v-1170h465v-223h-719v1393z" />
    <glyph glyph-name="lacute" unicode="&#x13a;" horiz-adv-x="540" 
d="M160 1589l215 316l160 -97l-252 -282zM141 0v1393h256v-1393h-256z" />
    <glyph glyph-name="Lcaron" unicode="&#x13d;" horiz-adv-x="874" 
d="M631 1391h215v-56q0 -109 -30 -195t-60 -126q-30 -39 -72 -82l-131 69q78 113 78 265v125zM139 1393h254v-1170h465v-223h-719v1393z" />
    <glyph glyph-name="lcaron" unicode="&#x13e;" horiz-adv-x="849" 
d="M610 1452h215v-55q1 -109 -29 -196t-60 -126t-72 -82l-132 70q78 113 78 264v125zM141 0v1413h256v-1413h-256z" />
    <glyph glyph-name="Lslash" unicode="&#x141;" horiz-adv-x="1046" 
d="M293 1393h254v-535l217 113l49 -150l-266 -137v-461h473v-223h-727v588l-207 -115l-47 152l254 137v631z" />
    <glyph glyph-name="lslash" unicode="&#x142;" horiz-adv-x="835" 
d="M285 1495h254v-596l206 102l52 -151l-258 -125v-725h-254v629l-191 -94l-49 151l240 119v690z" />
    <glyph glyph-name="Nacute" unicode="&#x143;" horiz-adv-x="1193" 
d="M483 1548l215 316l160 -97l-252 -282zM768 1393h236v-1393h-242l-438 938v-938h-234v1393h244l434 -951v951z" />
    <glyph glyph-name="nacute" unicode="&#x144;" horiz-adv-x="999" 
d="M391 1241l215 315l160 -96l-252 -282zM602 1063q283 0 283 -334v-729h-256v698q0 141 -107 142q-55 0 -101 -45t-46 -109v-686h-256v1044h203l22 -141q100 160 258 160z" />
    <glyph glyph-name="Ncaron" unicode="&#x147;" horiz-adv-x="1193" 
d="M870 1665l-276 -184l-279 194l78 97l199 -109l199 109zM768 1393h236v-1393h-242l-438 938v-938h-234v1393h244l434 -951v951z" />
    <glyph glyph-name="ncaron" unicode="&#x148;" horiz-adv-x="999" 
d="M776 1360l-276 -184l-279 194l78 96l199 -108l198 108zM602 1063q283 0 283 -334v-729h-256v698q0 141 -107 142q-55 0 -101 -45t-46 -109v-686h-256v1044h203l22 -141q100 160 258 160z" />
    <glyph glyph-name="Ohungarumlaut" unicode="&#x150;" horiz-adv-x="1126" 
d="M1055 1882l106 -86l-362 -299l-101 74zM682 1896l109 -86l-361 -299l-102 74zM764 385v608q0 89 -51 141t-133 52h-33q-84 0 -135 -50t-52 -141v-610q0 -88 50 -135t139 -47h31q84 0 134 48t50 134zM580 1413q192 1 316 -111t124 -301v-620q0 -189 -121 -295t-319 -106
h-31q-201 0 -323 104t-122 297v620q0 189 124 301t319 111h33z" />
    <glyph glyph-name="ohungarumlaut" unicode="&#x151;" horiz-adv-x="942" 
d="M948 1554l107 -86l-363 -299l-100 74zM575 1569l109 -86l-360 -299l-103 73zM596 309v426q0 47 -36 75t-88 28t-91 -28t-39 -75v-426q0 -47 38 -76t90 -29t89 30q37 28 37 75zM86 739q0 150 108 237t281 87q171 0 275 -86t104 -238v-434q0 -147 -111 -234t-271 -87
t-274 86q-112 86 -112 235v434z" />
    <glyph glyph-name="OE" unicode="&#x152;" horiz-adv-x="1769" 
d="M829 223v942h-213q-94 1 -175 -67t-81 -142v-522q2 -84 78 -147t180 -64h211zM1403 612h-316v-389h447v-223h-916q-214 0 -364 117t-150 289v579q0 160 154 283t358 123h873v-226h-404v-334h318v-219z" />
    <glyph glyph-name="oe" unicode="&#x153;" horiz-adv-x="1419" 
d="M1145 817q-37 39 -90 37t-95 -39t-47 -94l-2 -123l273 51l-2 66q0 63 -37 102zM476 211q58 0 104 36q45 36 47 91v395q-4 53 -48 88q-45 35 -103 35t-99 -36t-41 -91v-385q0 -57 41 -95t99 -38zM913 336q1 -70 59 -106t126 -37q68 1 144 23q75 22 118 50l94 -160
q-145 -113 -360 -112q-244 0 -336 172q-78 -176 -322 -176q-160 0 -257 92t-97 246v415q0 154 95 243t255 89q104 0 196 -38t132 -128q47 80 121 125t159 45q174 0 288 -93t114 -265v-207l-529 -88v-90z" />
    <glyph glyph-name="Racute" unicode="&#x154;" horiz-adv-x="1028" 
d="M457 1548l215 316l159 -97l-251 -282zM393 1165v-422h158q63 4 104 42t41 110v119q0 72 -42 112t-111 39h-150zM950 926q0 -268 -194 -334l239 -592h-270l-201 532h-131v-532h-256v1393h422q187 -1 289 -95t102 -282v-90z" />
    <glyph glyph-name="racute" unicode="&#x155;" horiz-adv-x="614" 
d="M260 1241l215 315l160 -96l-252 -282zM546 1065q62 0 89 -16l-33 -269q-43 6 -74 6q-63 0 -107 -54t-44 -138v-594h-256v1044h203l36 -161q23 80 74 131q50 51 112 51z" />
    <glyph glyph-name="Rcaron" unicode="&#x158;" horiz-adv-x="1028" 
d="M846 1665l-277 -184l-278 194l78 97l198 -109l199 109zM393 1165v-422h158q63 4 104 42t41 110v119q0 72 -42 112t-111 39h-150zM950 926q0 -268 -194 -334l239 -592h-270l-201 532h-131v-532h-256v1393h422q187 -1 289 -95t102 -282v-90z" />
    <glyph glyph-name="rcaron" unicode="&#x159;" horiz-adv-x="614" 
d="M649 1360l-276 -184l-279 194l78 96l199 -108l198 108zM546 1065q62 0 89 -16l-33 -269q-43 6 -74 6q-63 0 -107 -54t-44 -138v-594h-256v1044h203l36 -161q23 80 74 131q50 51 112 51z" />
    <glyph glyph-name="Sacute" unicode="&#x15a;" horiz-adv-x="954" 
d="M369 1569l215 315l159 -96l-251 -283zM492 -16q-270 0 -406 209l150 157q38 -74 106 -108t134 -35q66 0 116 42q49 42 49 128t-89 146q-21 16 -103 71q-156 94 -240 191t-86 237q-2 190 107 290q110 99 278 99q236 0 366 -174l-137 -160q-80 106 -213 107q-74 0 -116 -38
t-43 -100t27 -102q28 -41 54 -60q68 -51 138 -93q293 -168 297 -420q1 -175 -101 -281t-288 -106z" />
    <glyph glyph-name="sacute" unicode="&#x15b;" horiz-adv-x="815" 
d="M299 1241l215 315l160 -96l-252 -282zM424 -20q-100 0 -194 32t-150 92l104 168q86 -86 202 -86t116 103q0 41 -30 73t-110 66q-254 102 -253 322q0 156 96 236q97 80 251 79q154 0 287 -94l-84 -176q-90 59 -186 59q-117 0 -117 -104q0 -83 129 -138q260 -100 260 -319
q-2 -139 -89 -226t-232 -87z" />
    <glyph glyph-name="Scedilla" unicode="&#x15e;" horiz-adv-x="954" 
d="M684 -285q0 -154 -246 -237l-61 110q139 55 139 121q0 98 -139 127l33 154q-215 29 -324 203l150 157q38 -74 106 -108t134 -35q66 0 116 42q49 42 49 128t-89 146q-21 16 -103 71q-156 94 -240 191t-86 237q-2 190 107 290q110 99 278 99q236 0 366 -174l-137 -160
q-80 106 -213 107q-74 0 -116 -38t-43 -100t27 -102q28 -41 54 -60q68 -51 138 -93q293 -168 297 -420q2 -160 -84 -262t-244 -121l-21 -76q152 -61 152 -197z" />
    <glyph glyph-name="scedilla" unicode="&#x15f;" horiz-adv-x="815" 
d="M446 -291q0 98 -139 127l31 150q-176 27 -258 118l104 168q86 -86 202 -86t116 103q0 41 -30 73t-110 66q-254 102 -253 322q0 156 96 236q97 80 251 79q154 0 287 -94l-84 -176q-90 59 -186 59q-117 0 -117 -104q0 -83 129 -138q260 -100 260 -319q-1 -125 -71 -209
t-191 -100l-20 -72q152 -61 151 -197q0 -154 -245 -237l-62 110q139 55 139 121z" />
    <glyph glyph-name="Scaron" unicode="&#x160;" horiz-adv-x="1050" 
d="M793 1696l-277 -185l-278 195l77 96l199 -108l199 108zM504 -16q-270 0 -406 209l150 157q38 -74 106 -108t134 -35q66 0 116 42q49 42 49 128t-89 146q-21 16 -103 71q-156 94 -240 191t-86 237q-2 190 108 290t277 99q236 0 367 -174l-137 -160q-80 106 -213 107
q-74 0 -117 -38t-43 -100q-1 -62 27 -102q28 -41 54 -60q78 -57 138 -93q293 -168 297 -420q2 -175 -100 -281t-289 -106z" />
    <glyph glyph-name="scaron" unicode="&#x161;" horiz-adv-x="819" 
d="M688 1389l-276 -185l-279 195l78 96l199 -109l198 109zM422 -20q-100 0 -194 32t-150 92l104 168q86 -86 202 -86t116 103q0 41 -30 73t-110 66q-254 102 -254 322q0 156 96 236t252 79q154 0 287 -94l-84 -176q-88 59 -186 59q-117 0 -117 -104q0 -83 129 -138
q260 -100 260 -319q-2 -139 -89 -226t-232 -87z" />
    <glyph glyph-name="Tcommaaccent" unicode="&#x162;" horiz-adv-x="976" 
d="M358 -94h215v-56q1 -110 -29 -196t-60 -125t-72 -82l-131 70q78 113 77 264v125zM354 1165h-323v228h901v-228h-322v-1165h-256v1165z" />
    <glyph glyph-name="tcommaaccent" unicode="&#x163;" horiz-adv-x="651" 
d="M295 -80h215v-55q0 -109 -30 -196t-60 -126t-72 -82l-131 70q78 113 78 264v125zM508 219q29 0 90 21l47 -197q-92 -53 -222 -53t-195 60t-64 198v620h-113v176h113v248h256v-248h151v-176h-151v-563q0 -86 88 -86z" />
    <glyph glyph-name="Tcaron" unicode="&#x164;" horiz-adv-x="968" 
d="M141 608v205h213v352h-323v228h901v-228h-322v-352h213v-205h-213v-608h-256v608h-213z" />
    <glyph glyph-name="tcaron" unicode="&#x165;" horiz-adv-x="956" 
d="M688 1147h215v-55q0 -109 -30 -196q-29 -87 -59 -126t-73 -82l-131 70q78 113 78 264v125zM508 219q29 0 90 21l47 -197q-92 -53 -222 -53t-195 60t-64 198v620h-113v176h113v248h256v-248h151v-176h-151v-563q0 -86 88 -86z" />
    <glyph glyph-name="Uring" unicode="&#x16e;" horiz-adv-x="1179" 
d="M508 1641q0 -35 22 -57t55 -22q31 0 55 24q24 22 24 56t-24 58t-56 24t-54 -24q-22 -25 -22 -59zM584 1802q66 0 112 -45t47 -111q-1 -66 -47 -114q-46 -47 -110 -47t-112 47q-46 47 -46 114q0 68 45 112t111 44zM786 387v1006h256v-1002q0 -197 -126 -305t-324 -106
q-198 0 -327 106q-130 106 -130 305v1002h256v-1006q1 -88 59 -136t142 -48t139 49t55 135z" />
    <glyph glyph-name="uring" unicode="&#x16f;" horiz-adv-x="1009" 
d="M586 1312q0 34 -24 58t-56 25q-32 -1 -54 -25t-22 -58t23 -57t55 -23t54 24q24 22 24 56zM350 1316q0 68 45 112t111 44t112 -44q46 -46 48 -112q0 -66 -47 -114q-47 -47 -111 -47t-112 47q-46 47 -46 114zM633 307v737h258v-741q0 -155 -110 -239q-109 -84 -275 -84
t-275 85t-108 238v741h256v-737q0 -49 37 -77t91 -28t90 28q36 26 36 77z" />
    <glyph glyph-name="Uhungarumlaut" unicode="&#x170;" horiz-adv-x="1179" 
d="M1067 1862l107 -86l-363 -299l-100 73zM694 1876l109 -86l-361 -299l-102 74zM786 387v1006h256v-1002q0 -197 -126 -305t-324 -106q-198 0 -327 106q-130 106 -130 305v1002h256v-1006q1 -88 59 -136t142 -48t139 49t55 135z" />
    <glyph glyph-name="uhungarumlaut" unicode="&#x171;" horiz-adv-x="1009" 
d="M985 1534l107 -86l-363 -299l-100 74zM612 1548l109 -86l-361 -299l-102 74zM633 307v737h258v-741q0 -155 -110 -239q-109 -84 -275 -84t-275 85t-108 238v741h256v-737q0 -49 37 -77t91 -28t90 28q36 26 36 77z" />
    <glyph glyph-name="Ydieresis" unicode="&#x178;" horiz-adv-x="968" 
d="M766 1710v-192h-186v192h186zM383 1710v-192h-184v192h184zM350 0v522l-305 871h272l162 -619l168 619h271l-312 -873v-520h-256z" />
    <glyph glyph-name="Zacute" unicode="&#x179;" horiz-adv-x="958" 
d="M367 1548l215 316l159 -97l-252 -282zM98 1393h774v-140l-487 -1026h489v-227h-790v141l485 1022h-471v230z" />
    <glyph glyph-name="zacute" unicode="&#x17a;" horiz-adv-x="747" 
d="M264 1221l215 315l160 -96l-252 -283zM78 1044h567v-131l-309 -702h340v-211h-606v147l307 691h-299v206z" />
    <glyph glyph-name="Zdotaccent" unicode="&#x17b;" horiz-adv-x="958" 
d="M369 1483v194h217v-194h-217zM98 1393h774v-140l-487 -1026h489v-227h-790v141l485 1022h-471v230z" />
    <glyph glyph-name="zdotaccent" unicode="&#x17c;" horiz-adv-x="747" 
d="M264 1155v195h217v-195h-217zM78 1044h567v-131l-309 -702h340v-211h-606v147l307 691h-299v206z" />
    <glyph glyph-name="Zcaron" unicode="&#x17d;" horiz-adv-x="970" 
d="M762 1677l-277 -184l-278 195l78 96l198 -109l199 109zM98 1393h774v-140l-487 -1026h489v-227h-790v141l485 1022h-471v230z" />
    <glyph glyph-name="zcaron" unicode="&#x17e;" horiz-adv-x="753" 
d="M655 1374l-276 -184l-279 194l78 97l199 -109l198 109zM78 1044h567v-131l-309 -702h340v-211h-606v147l307 691h-299v206z" />
    <glyph glyph-name="florin" unicode="&#x192;" horiz-adv-x="1136" 
d="M819 1346q-57 0 -102 -37t-53 -90l-21 -162h199l-13 -193h-211l-94 -753q-24 -152 -158 -224t-327 -73l-21 211q104 0 179 44q74 44 86 136l79 659h-190l12 193h203l19 194q14 133 134 216t291 84q170 1 261 -66l-64 -178q-96 39 -209 39z" />
    <glyph glyph-name="circumflex" unicode="&#x2c6;" horiz-adv-x="720" 
d="M80 1272l278 184l283 -190l-78 -97l-203 117l-204 -115z" />
    <glyph glyph-name="caron" unicode="&#x2c7;" horiz-adv-x="669" 
d="M635 1335l-277 -184l-278 195l78 96l198 -109l199 109z" />
    <glyph glyph-name="breve" unicode="&#x2d8;" horiz-adv-x="727" 
d="M361 1206q-81 0 -153 47t-104 127l115 37q43 -104 142 -104t143 104l117 -37q-35 -80 -107 -127t-153 -47z" />
    <glyph glyph-name="dotaccent" unicode="&#x2d9;" horiz-adv-x="354" 
d="M70 1284v195h217v-195h-217z" />
    <glyph glyph-name="ring" unicode="&#x2da;" horiz-adv-x="448" 
d="M147 1297q0 -35 23 -57q22 -22 54 -22t56 24q24 22 24 56t-24 58t-56 24t-54 -24t-23 -59zM383 1301q0 -67 -47 -113q-48 -46 -112 -47q-64 0 -110 47q-46 48 -46 114t45 111t111 45t112 -45q47 -45 47 -112z" />
    <glyph glyph-name="ogonek" unicode="&#x2db;" horiz-adv-x="626" 
d="M272 -313h273v-152h-488q-4 49 -4 72q-1 141 59 231t146 121l-2 47h201l4 -145q-182 -12 -189 -154v-20z" />
    <glyph glyph-name="tilde" unicode="&#x2dc;" horiz-adv-x="851" 
d="M291 1253q-49 0 -101 -69l-94 102q78 139 193 139q47 0 136 -42t124 -42q63 2 94 68l105 -90q-56 -103 -98 -127t-86 -24t-134 42q-90 43 -139 43z" />
    <glyph glyph-name="hungarumlaut" unicode="&#x2dd;" horiz-adv-x="1091" 
d="M848 1483l106 -86l-362 -299l-100 73zM475 1497l109 -86l-361 -299l-102 74z" />
    <glyph glyph-name="endash" unicode="&#x2013;" horiz-adv-x="1173" 
d="M6 537v125h1151v-125h-1151z" />
    <glyph glyph-name="emdash" unicode="&#x2014;" horiz-adv-x="1597" 
d="M8 535v127h1579v-127h-1579z" />
    <glyph glyph-name="quoteleft" unicode="&#x2018;" horiz-adv-x="301" 
d="M236 991h-220v56q0 287 172 407l101 -65q-53 -96 -53 -271v-127z" />
    <glyph glyph-name="quoteright" unicode="&#x2019;" horiz-adv-x="313" 
d="M78 1452h215v-55q0 -109 -30 -196q-29 -87 -59 -126t-73 -82l-131 70q78 113 78 264v125z" />
    <glyph glyph-name="quotesinglbase" unicode="&#x201a;" horiz-adv-x="464" 
d="M221 184h215v-55q0 -109 -30 -196t-59 -126q-30 -39 -73 -81l-131 69q78 113 78 264v125z" />
    <glyph glyph-name="quotedblleft" unicode="&#x201c;" horiz-adv-x="606" 
d="M236 991h-220v56q0 287 172 407l101 -65q-53 -96 -53 -271v-127zM532 991h-219v56q0 287 172 407l101 -65q-53 -96 -54 -271v-127z" />
    <glyph glyph-name="quotedblright" unicode="&#x201d;" horiz-adv-x="614" 
d="M375 1462h215v-55q0 -109 -30 -196t-60 -126t-72 -81l-131 69q78 113 78 264v125zM78 1462h215v-55q0 -109 -30 -196q-29 -87 -59 -126t-73 -81l-131 69q78 113 78 264v125z" />
    <glyph glyph-name="quotedblbase" unicode="&#x201e;" horiz-adv-x="833" 
d="M547 188h215v-55q0 -109 -30 -195t-60 -126q-30 -39 -72 -82l-131 69q78 113 78 264v125zM221 186h215v-55q0 -109 -30 -196t-59 -125q-30 -38 -73 -82l-131 69q78 113 78 264v125z" />
    <glyph glyph-name="dagger" unicode="&#x2020;" horiz-adv-x="962" 
d="M592 1393v-389h276v-168h-276v-824h-199v824h-295v168h295v389h199z" />
    <glyph glyph-name="daggerdbl" unicode="&#x2021;" horiz-adv-x="1089" 
d="M647 1393v-389h367v-168h-367v-670h367v-166h-367v-379h-201v379h-372v166h372v670h-372v168h372v389h201z" />
    <glyph glyph-name="bullet" unicode="&#x2022;" horiz-adv-x="671" 
d="M137 344v404h398v-404h-398z" />
    <glyph glyph-name="ellipsis" unicode="&#x2026;" horiz-adv-x="1568" 
d="M137 0v246h244v-246h-244zM1184 0v246h246v-246h-246zM659 0v246h246v-246h-246z" />
    <glyph glyph-name="perthousand" unicode="&#x2030;" horiz-adv-x="2109" 
d="M1827 227v146q0 43 -31 67t-80 25q-49 0 -82 -22t-32 -58v-156q0 -41 32 -65t79 -23q46 1 80 25t34 61zM1438 385q0 105 80 169t193 64q114 0 196 -62t82 -161v-174q0 -105 -79 -167t-198 -62q-118 0 -196 57t-78 164v172zM1174 227v148q0 43 -30 67t-80 23
q-50 0 -81 -26t-31 -68v-138q0 -41 31 -67t78 -25t80 25t33 61zM285 1198v-137q0 -92 112 -92q49 1 81 23t32 67v143q0 45 -31 69q-31 23 -81 23t-82 -26q-31 -27 -31 -70zM788 385q0 105 80 169t193 64t195 -62t81 -161v-172q1 -111 -75 -171t-194 -60t-199 61t-81 162v170
zM670 1214v-163q0 -104 -79 -169t-195 -65q-116 -1 -196 63t-79 171v163q0 104 80 166q79 62 195 64q116 0 195 -64t79 -166zM213 6l868 1424l158 -11l-858 -1421z" />
    <glyph glyph-name="guilsinglleft" unicode="&#x2039;" horiz-adv-x="571" 
d="M504 84l-133 -84l-297 356l297 369l135 -78l-203 -287z" />
    <glyph glyph-name="guilsinglright" unicode="&#x203a;" horiz-adv-x="571" 
d="M66 84l200 276l-203 287l138 78l297 -369l-297 -356z" />
    <glyph glyph-name="fraction" unicode="&#x2044;" horiz-adv-x="1124" 
d="M250 0h-223l862 1393h213z" />
    <glyph glyph-name="foursuperior" unicode="&#x2074;" horiz-adv-x="780" 
d="M440 946v268h-16l-156 -268h172zM623 1393v-447h116v-143h-116v-141h-183v141h-362v108l303 482h242z" />
    <glyph glyph-name="Euro" unicode="&#x20ac;" horiz-adv-x="1343" 
d="M78 643h158v117h-158v125h158v125q0 184 121 294q122 110 309 109q229 0 362 -139l-117 -176q-100 92 -227 92q-92 0 -142 -52t-50 -145v-108h477v-125h-477v-117h477v-125h-477v-127q0 -92 55 -142t145 -50q141 0 223 75l109 -165q-127 -129 -338 -129t-331 103
t-119 294v141h-158v125z" />
    <glyph glyph-name="trademark" unicode="&#x2122;" horiz-adv-x="1097" 
d="M70 1335v99h376v-99h-137v-338h-104v338h-135zM530 1434h107l111 -189l110 189h107v-430h-103v258l-96 -162h-39l-92 164v-260h-105v430z" />
    <glyph glyph-name="onethird" unicode="&#x2153;" horiz-adv-x="1464" 
d="M1356 549v-17q0 -61 -40 -102t-91 -55q53 -17 96 -59t43 -95v-33q0 -203 -281 -202q-106 0 -194 41t-125 112l106 82q23 -39 73 -63t108 -25q127 0 127 62v26q0 43 -39 67t-88 23h-121v127h114q123 0 123 80v19q-1 63 -123 63t-170 -72l-88 93q33 59 116 94t177 35
q277 0 277 -201zM313 0h-223l862 1393h213zM272 696v521h-209v176h402v-697h-193z" />
    <glyph glyph-name="twothirds" unicode="&#x2154;" horiz-adv-x="1587" 
d="M446 1421q119 0 187 -51t67 -153q0 -131 -157 -209q-14 -8 -50 -26l-72 -36q-58 -32 -65 -82h353v-155h-564v96q-1 101 53 161t167 115q147 61 147 115q0 68 -106 68t-205 -74l-62 119q117 112 307 112zM1501 561v-16q0 -61 -40 -103t-91 -55q53 -16 96 -58t43 -96v-32
q0 -203 -280 -203q-107 0 -195 41t-125 113l107 81q23 -39 73 -63t107 -25q127 0 127 62v26q0 43 -39 67t-88 24h-121v127h115q123 0 123 79v19q0 63 -123 63t-170 -71l-88 92q33 59 116 94t177 35q276 0 276 -201zM494 0h-224l863 1393h213z" />
    <glyph glyph-name="minus" unicode="&#x2212;" horiz-adv-x="1069" 
d="M88 784h891v-182h-891v182z" />
    <glyph glyph-name="asteriskmath" unicode="&#x2217;" horiz-adv-x="999" 
d="M426 1087h127v-258l248 84l39 -120l-246 -82l151 -207l-104 -76l-152 209l-157 -211l-99 76l156 209l-246 84l37 120l246 -84v256z" />
    <glyph glyph-name="notequal" unicode="&#x2260;" horiz-adv-x="1298" 
d="M1210 905v-160h-391l-141 -258h532v-155h-612l-143 -269l-121 60l115 209h-361v155h438l144 258h-582v160h662l135 254l119 -61l-103 -193h309z" />
    <glyph glyph-name="lessequal" unicode="&#x2264;" horiz-adv-x="1257" 
d="M127 0v143h1006v-143h-1006zM1133 387v-162l-1045 426l1045 420v-168l-646 -254z" />
    <glyph glyph-name="greaterequal" unicode="&#x2265;" horiz-adv-x="1224" 
d="M88 1081l1034 -428l-1034 -426v162l651 262l-651 262v168zM1102 143v-143h-1014v143h1014z" />
    <glyph glyph-name="zerooldstyle" unicode="&#xf730;" horiz-adv-x="946" 
d="M641 379v262q0 88 -46 135t-124 47t-123 -48t-45 -134v-262q0 -86 44 -131t124 -45t125 45t45 131zM899 647v-274q0 -181 -119 -287t-308 -106t-307 106t-118 287v274q0 182 117 291t307 111t309 -108t119 -294z" />
    <glyph glyph-name="oneoldstyle" unicode="&#xf731;" horiz-adv-x="827" 
d="M100 0v199h230v645h-207v198l463 21v-864h205v-199h-691z" />
    <glyph glyph-name="twooldstyle" unicode="&#xf732;" horiz-adv-x="948" 
d="M393 217h477v-217h-749v109q0 137 55 226q54 89 202 175t184 124t36 93q0 111 -136 111t-233 -101l-112 168q160 160 397 160q168 0 254 -86t86 -242q0 -102 -69 -183t-195 -152q-127 -72 -162 -104t-35 -81z" />
    <glyph glyph-name="threeoldstyle" unicode="&#xf733;" horiz-adv-x="878" 
d="M735 737v-75q0 -186 -178 -263q105 -18 167 -87t62 -173v-80q0 -115 -56 -203q-103 -161 -373 -217q-120 -26 -259 -26l-26 215q182 0 308 48q148 56 148 181v76q0 72 -51 108t-135 38h-63l-15 219h51q74 0 120 38t46 107v70q0 125 -137 125q-117 0 -217 -76l-72 184
q139 119 313 119t271 -85q96 -85 96 -243z" />
    <glyph glyph-name="fouroldstyle" unicode="&#xf734;" horiz-adv-x="997" 
d="M598 203v473h-29l-231 -473h260zM827 1044v-841h181v-203h-181v-418h-229v418h-539v168l486 876h282z" />
    <glyph glyph-name="fiveoldstyle" unicode="&#xf735;" horiz-adv-x="935" 
d="M455 625q190 0 287 -87t98 -255v-140q0 -111 -48 -203t-122 -150q-149 -118 -348 -158q-88 -17 -166 -17l-31 213q116 0 268 60q82 32 137 99t56 156v93q0 90 -51 128t-170 37h-256l73 643h582v-229h-356l-31 -190h78z" />
    <glyph glyph-name="sixoldstyle" unicode="&#xf736;" horiz-adv-x="1007" 
d="M666 346v217q0 74 -41 111t-106 37t-111 -38t-46 -110v-217q0 -74 46 -108t110 -35q64 1 106 35t42 108zM592 907q146 0 236 -83q91 -83 92 -232v-277q0 -159 -118 -247t-286 -88t-289 96t-121 264v690q0 170 122 276t321 107q199 0 321 -121l-110 -174q-88 72 -211 72
q-82 0 -134 -43t-53 -117v-225q84 102 230 102z" />
    <glyph glyph-name="sevenoldstyle" unicode="&#xf737;" horiz-adv-x="962" 
d="M45 803v241h805v-137l-356 -1259h-285l344 1155h-508z" />
    <glyph glyph-name="eightoldstyle" unicode="&#xf738;" horiz-adv-x="1026" 
d="M365 965q0 -61 39 -101q40 -39 96 -43h26q57 4 96 40q38 36 37 104v69q0 70 -45 109t-104 39t-102 -39t-43 -109v-69zM684 340v123q0 67 -49 111t-109 44h-28q-64 -6 -112 -46t-48 -109v-117q0 -74 50 -108t121 -35t123 33t52 104zM915 993q0 -88 -63 -167t-137 -109
q92 -35 161 -107t68 -176v-108q0 -168 -125 -257t-309 -89t-306 89t-122 257v108q0 98 68 174t159 109q-88 33 -144 111t-56 173v62q0 162 115 253q116 91 287 91t288 -90t116 -254v-70z" />
    <glyph glyph-name="nineoldstyle" unicode="&#xf739;" horiz-adv-x="1009" 
d="M643 444v277q0 51 -44 84t-103 33q-58 0 -104 -34t-46 -83v-283q0 -59 43 -95t103 -36t106 39q45 39 45 98zM496 1061q166 0 286 -93t119 -243v-559q0 -272 -176 -424t-444 -152l-25 213q166 0 276 83t111 253v49q-70 -106 -218 -106t-241 89q-92 89 -92 247v307
q0 150 119 243t285 93z" />
    <glyph glyph-name="Asmall" unicode="&#xf761;" horiz-adv-x="1062" 
d="M426 438h219l-110 377zM408 1149h251l371 -1149h-285l-67 260h-291l-74 -260h-284z" />
    <glyph glyph-name="Bsmall" unicode="&#xf762;" horiz-adv-x="952" 
d="M389 954v-311h103q44 0 76 35t32 90v70q0 51 -33 84t-78 32h-100zM641 307v58q0 57 -33 97t-86 40h-133v-312h115q57 0 97 31t40 86zM842 860v-61q0 -63 -43 -131t-99 -80q76 -18 129 -88t54 -146v-78q0 -132 -84 -204t-221 -72h-445v1145h402q143 0 225 -75t82 -210z
" />
    <glyph glyph-name="Csmall" unicode="&#xf763;" horiz-adv-x="872" 
d="M535 940q-176 0 -177 -170v-391q0 -84 56 -124t153 -40q96 0 191 64l92 -185q-137 -104 -318 -104t-306 98q-124 98 -124 301v373q0 215 116 309t308 94t303 -112l-104 -172q-84 59 -190 59z" />
    <glyph glyph-name="Dsmall" unicode="&#xf764;" horiz-adv-x="1032" 
d="M655 379v397q0 141 -170 142h-96v-695h96q68 0 119 37t51 119zM133 1145h322q207 -1 333 -101t125 -278v-389q0 -184 -121 -281q-122 -96 -337 -96h-322v1145z" />
    <glyph glyph-name="Esmall" unicode="&#xf765;" horiz-adv-x="856" 
d="M647 483h-258v-260h375v-223h-631v1145h588v-225h-332v-271h258v-166z" />
    <glyph glyph-name="Fsmall" unicode="&#xf766;" horiz-adv-x="768" 
d="M739 1145v-227h-348v-273h273v-180h-273v-465h-258v1145h606z" />
    <glyph glyph-name="Gsmall" unicode="&#xf767;" horiz-adv-x="995" 
d="M542 940q-184 0 -184 -158v-417q0 -154 156 -158q84 0 150 41v225h-146v164h373v-510q-173 -143 -365 -143t-308 100t-116 281v417q0 170 116 276t276 107q209 0 344 -96l-70 -188q-132 59 -226 59z" />
    <glyph glyph-name="Hsmall" unicode="&#xf768;" horiz-adv-x="1118" 
d="M729 694v453h256v-1147h-256v467h-340v-467h-256v1147h256v-453h340z" />
    <glyph glyph-name="Ismall" unicode="&#xf769;" horiz-adv-x="575" 
d="M158 0v1147h256v-1147h-256z" />
    <glyph glyph-name="Jsmall" unicode="&#xf76a;" horiz-adv-x="831" 
d="M451 307v840h256v-871q-1 -131 -99 -213q-98 -81 -253 -81t-251 78t-96 216l244 29q2 -41 29 -71t69 -29q101 0 101 102z" />
    <glyph glyph-name="Ksmall" unicode="&#xf76b;" horiz-adv-x="1005" 
d="M391 1145v-483l293 483h272l-333 -539l372 -606h-282l-254 430l-68 -84v-346h-258v1145h258z" />
    <glyph glyph-name="Lsmall" unicode="&#xf76c;" horiz-adv-x="800" 
d="M133 1145h256v-922h399v-223h-655v1145z" />
    <glyph glyph-name="Msmall" unicode="&#xf76d;" horiz-adv-x="1290" 
d="M133 1145h279l231 -535l231 535h279v-1145h-258v764l-193 -459h-120l-191 459v-764h-258v1145z" />
    <glyph glyph-name="Nsmall" unicode="&#xf76e;" horiz-adv-x="1159" 
d="M782 1145h242v-1145h-262l-387 791v-791h-242v1145h266l383 -780v780z" />
    <glyph glyph-name="Osmall" unicode="&#xf76f;" horiz-adv-x="1099" 
d="M733 369v403q0 78 -52 123t-118 45h-28q-70 0 -120 -44t-50 -124v-403q0 -82 49 -124t123 -42h24q74 0 123 42t49 124zM563 1165q180 1 302 -109t122 -282v-407q0 -179 -121 -283t-305 -104h-24q-188 0 -309 104q-120 104 -119 283v407q0 174 122 283q123 109 304 108h28
z" />
    <glyph glyph-name="Psmall" unicode="&#xf770;" horiz-adv-x="929" 
d="M633 707v75q0 137 -131 138h-111v-345h111q57 0 94 32t37 100zM133 0v1145h410q152 0 257 -97t105 -253v-82q0 -160 -102 -246t-262 -86h-150v-381h-258z" />
    <glyph glyph-name="Rsmall" unicode="&#xf772;" horiz-adv-x="1013" 
d="M391 936v-330h137q53 4 83 41t30 96v70q0 53 -37 88t-84 35h-129zM895 741q0 -193 -147 -280l198 -461h-256l-162 420h-137v-420h-258v1145h424q145 0 241 -87t97 -229v-88z" />
    <glyph glyph-name="Ssmall" unicode="&#xf773;" horiz-adv-x="884" 
d="M805 332q0 -164 -92 -258t-273 -94q-114 0 -226 40t-177 115l121 156q100 -100 243 -101q168 0 168 129q0 51 -41 87t-145 67q-301 104 -301 338q0 172 109 262q110 90 279 90t329 -100l-82 -184q-115 70 -234 69q-75 0 -117 -34t-42 -93t36 -96t134 -66
q311 -100 311 -327z" />
    <glyph glyph-name="Tsmall" unicode="&#xf774;" horiz-adv-x="856" 
d="M14 920v227h824v-227h-287v-920h-256v920h-281z" />
    <glyph glyph-name="Usmall" unicode="&#xf775;" horiz-adv-x="1120" 
d="M731 385v762h254v-768q0 -193 -121 -293t-308 -100t-305 101t-118 292v768h258v-762q0 -176 170 -176t170 176z" />
    <glyph glyph-name="Vsmall" unicode="&#xf776;" horiz-adv-x="1005" 
d="M23 1147h272l207 -819l211 819h268l-365 -1147h-233z" />
    <glyph glyph-name="Wsmall" unicode="&#xf777;" horiz-adv-x="1400" 
d="M596 1147h219l141 -799l144 799h262l-252 -1147h-260l-145 707l-160 -707h-262l-248 1147h264l143 -797z" />
    <glyph glyph-name="Xsmall" unicode="&#xf778;" horiz-adv-x="1075" 
d="M57 1147h295l187 -414l196 414h295l-317 -569l323 -578h-297l-200 406l-207 -406h-295l330 575z" />
    <glyph glyph-name="Ysmall" unicode="&#xf779;" horiz-adv-x="1024" 
d="M633 0h-254v418l-340 729h295l172 -475l186 475h293l-352 -729v-418z" />
    <glyph glyph-name="Zsmall" unicode="&#xf77a;" horiz-adv-x="913" 
d="M842 240v-240h-768l-4 137l471 785h-437v225h727l3 -139l-469 -768h477z" />
    <glyph glyph-name="ff" unicode="&#xfb00;" horiz-adv-x="1300" 
d="M854 1044v115q0 61 10 98q-94 23 -198 23q-217 0 -217 -141v-80h221v-172h-221v-887h-254v887h-113v172h113v129q-1 150 121 230t292 79q170 0 373 -76q71 41 177 41t179 -39l-39 -192q-53 14 -94 14q-40 1 -68 -25t-28 -75v-101h168v-174h-168v-870h-254v870h-86v174h86
z" />
    <glyph glyph-name="ffi" unicode="&#xfb03;" horiz-adv-x="1685" 
d="M1327 0v1057h256v-1057h-256zM776 1059v129q0 37 10 78q-72 14 -159 14q-217 0 -217 -141v-80h221v-172h-221v-887h-254v887h-113v172h113v129q0 150 122 230t288 79q166 0 354 -67q237 142 645 -9l-41 -178q-26 5 -100 21t-177 16q-217 0 -217 -141v-80h221v-172h-221
v-887h-254v887h-112v172h112z" />
    <glyph glyph-name="ffl" unicode="&#xfb04;" horiz-adv-x="1818" 
d="M805 1059v129q0 35 10 76q-90 16 -174 16q-217 0 -217 -141v-80h221v-172h-221v-887h-254v887h-113v172h113v129q0 150 122 230t288 79q166 0 362 -70q113 70 280 70t371 -76l-2 -8h119v-1413h-256v1262q-84 18 -178 18q-217 0 -217 -141v-80h221v-172h-221v-887h-254
v887h-113v172h113z" />
    <glyph glyph-name="e.alt1" horiz-adv-x="907" 
d="M470 848q-52 0 -88 -31t-38 -90v-127l246 43v82q0 61 -34 92t-86 31zM342 340q0 -135 210 -135q108 0 210 55l76 -180q-124 -94 -320 -94t-313 86t-117 243v433q0 143 115 228t271 85t256 -86q99 -86 99 -240v-227l-487 -84v-84z" />
    <glyph glyph-name="Qsmall" horiz-adv-x="1122" 
d="M733 369v403q0 78 -52 123t-118 45h-28q-70 0 -120 -44t-50 -124v-403q0 -82 49 -124t123 -42h24q31 0 57 6l-86 121l117 92l76 -107q8 34 8 54zM563 1165q180 1 302 -109t122 -282v-407q0 -164 -104 -269l102 -141l-113 -94l-112 153q-96 -37 -199 -36h-24
q-188 0 -309 104q-120 104 -119 283v407q0 174 122 283q123 109 304 108h28z" />
    <glyph glyph-name="Ccedillasmall" horiz-adv-x="892" 
d="M530 940q-176 0 -176 -170v-391q0 -84 56 -124t153 -40q96 0 191 64l92 -185q-123 -94 -271 -102l-10 -39q152 -61 152 -197q0 -154 -246 -237l-61 110q139 55 139 121q0 98 -139 127l24 121q-150 23 -243 120t-93 271v373q0 215 116 309t308 94t303 -112l-104 -172
q-85 59 -191 59z" />
    <glyph glyph-name="Q.alt" horiz-adv-x="1138" 
d="M770 385v608q0 89 -51 141t-133 52h-33q-84 0 -135 -50t-51 -141v-610q0 -88 50 -135t138 -47h31q84 0 134 48t50 134zM586 1413q192 1 316 -111t124 -301v-620q0 -156 -83 -256t-224 -131v-98l383 -70l-27 -203l-594 96v265q-170 18 -270 120t-100 277v620
q0 190 123 302q124 111 319 110h33z" />
    <glyph glyph-name="y.alt" horiz-adv-x="980" 
d="M283 1040l202 -688l213 688h269l-551 -1513l-244 65l182 471l-340 977h269z" />
    <glyph glyph-name="k.alt" horiz-adv-x="1077" 
d="M106 1423h248v-786l363 418l266 -17l-412 -483q105 -35 205 -133t160 -210t80 -212h-275q0 2 -17 45q-65 164 -167 266q-70 70 -203 119v-430h-248v1423z" />
    <glyph glyph-name="g.alt" horiz-adv-x="1069" 
d="M387 692v-84q0 -66 45 -102t115 -35q70 0 115 35t45 96v88q-1 62 -49 100t-112 38t-112 -39q-47 -38 -47 -97zM483 -256h101q61 0 105 23t46 67v70l-456 96q-82 12 -113 57t-31 111q0 121 115 197q-123 94 -123 268v72q0 166 115 256t305 90q139 0 241 -52l224 91
l61 -164l-151 -49q43 -74 43 -170v-91q0 -162 -114 -248t-298 -85q-78 0 -141 12q-35 -25 -35 -70q0 -63 88 -78l526 -102v-219q1 -147 -111 -220t-282 -73h-121q-169 0 -279 72t-110 215q0 18 8 59l244 17l-6 -37q0 -51 44 -83t105 -32z" />
    <glyph glyph-name="germandbls.alt" horiz-adv-x="1210" 
d="M442 1100v-1100h-247v817h-144v223h142v74q0 180 99 272t280 92t294 -98q113 -100 113 -290l-135 -265q92 -37 164 -137t71 -250v-139q0 -151 -89 -233q-90 -82 -242 -82t-234 69l61 205q59 -55 123 -55t97 34t32 95v108q0 92 -56 158q-93 110 -236 115l184 381
q0 72 -42 116q-41 44 -103 43t-97 -39t-35 -114z" />
    <glyph glyph-name="germandbls.alt2" horiz-adv-x="1064" 
d="M371 1090v-1090h-256v1106q0 186 102 280q103 94 293 94t315 -112q125 -113 125 -309q-100 -81 -134 -143t-34 -144t52 -134q16 -18 76 -68q146 -123 145 -278q0 -155 -94 -235q-93 -80 -259 -80t-262 91l62 182q68 -55 142 -55t115 29q40 30 40 86q1 56 -23 84
q-36 44 -78 76q-95 75 -130 138q-34 63 -33 156q0 180 153 344q0 66 -50 106t-116 39t-108 -43t-43 -120z" />
    <glyph glyph-name="zero.small" horiz-adv-x="1085" 
d="M737 389v352q0 91 -54 143t-141 52q-86 0 -140 -51t-54 -144v-352q0 -90 54 -139t140 -49t140 49q55 49 55 139zM94 745q0 188 127 301t321 113q194 -1 322 -113t127 -301v-362q0 -188 -128 -297q-129 -109 -321 -109t-320 110t-128 296v362z" />
    <glyph glyph-name="one.small" horiz-adv-x="710" 
d="M285 0v932h-236v213h490v-1145h-254z" />
    <glyph glyph-name="two.small" horiz-adv-x="890" 
d="M328 211h506v-211h-754v106q2 160 55 274t213 208t182 134q29 44 29 87q0 129 -131 129q-68 0 -136 -36t-110 -79l-106 181q70 70 175 116t220 47q164 0 254 -92t90 -252q-1 -119 -65 -199t-189 -156q-125 -75 -179 -130t-54 -127z" />
    <glyph glyph-name="three.small" horiz-adv-x="946" 
d="M834 885v-64q0 -83 -46 -147t-129 -90q188 -66 189 -242v-78q0 -147 -112 -214q-112 -66 -270 -66t-270 56t-139 179l213 74q27 -96 166 -96q66 -1 104 27t38 79v70q0 55 -38 86t-98 30h-149v199h139q61 0 96 30t35 83v45q0 51 -41 82q-41 30 -99 30t-98 -30t-53 -78
l-194 84q76 238 400 240q148 0 252 -75t104 -214z" />
    <glyph glyph-name="four.small" horiz-adv-x="987" 
d="M496 414v383h-23l-186 -383h209zM750 1143v-729h192v-191h-192v-223h-254v223h-445v148l418 772h281z" />
    <glyph glyph-name="five.small" horiz-adv-x="944" 
d="M475 717q183 0 287 -77t104 -237v-94q0 -145 -108 -239t-257 -94q-150 0 -255 65q-104 66 -140 190l181 107q37 -147 190 -148q133 0 133 134v63q0 135 -166 135h-284l61 621h570v-225h-367l-14 -201h65z" />
    <glyph glyph-name="six.small" horiz-adv-x="931" 
d="M598 311v109q0 55 -34 93t-89 38t-90 -37t-35 -100v-103q0 -49 36 -82t88 -33t88 34q36 32 36 81zM558 748q128 0 211 -88t83 -232v-123q0 -156 -106 -244t-271 -88t-273 89t-108 243v533q0 143 104 240t259 98q190 0 315 -111l-113 -180q-74 68 -180 67q-59 0 -94 -39
t-35 -92v-174q80 101 208 101z" />
    <glyph glyph-name="seven.small" horiz-adv-x="696" 
d="M10 936v211h662v-107l-303 -1040h-271l287 936h-375z" />
    <glyph glyph-name="eight.small" horiz-adv-x="966" 
d="M367 784q0 -119 118 -118q115 0 115 118v78q0 57 -31 88t-84 31t-86 -31t-32 -88v-78zM629 281v90q0 137 -144 137q-67 0 -105 -36t-38 -101v-90q0 -59 40 -91t103 -32q144 0 144 123zM856 838q0 -86 -53 -151t-125 -93q84 -22 144 -92t61 -154v-78q1 -301 -397 -301
t-398 301v70q0 88 59 163t144 89q-78 31 -128 94t-50 145v54q0 143 102 222t267 79q166 0 270 -79t104 -222v-47z" />
    <glyph glyph-name="nine.small" horiz-adv-x="976" 
d="M625 731v92q0 70 -39 107q-40 37 -104 37t-103 -37t-39 -107v-96q0 -76 39 -114t102 -38t104 40q40 40 40 116zM481 1176q170 0 285 -96t115 -257v-499q0 -166 -109 -258q-108 -92 -306 -92t-327 104l74 182q43 -34 117 -60t133 -26q162 0 162 150v170
q-59 -104 -208 -104t-241 89q-92 90 -92 254v92q0 163 114 257t283 94z" />
    <glyph glyph-name="h.alt" horiz-adv-x="999" 
d="M858 0h-254v809h-53q-66 0 -128 -67t-63 -138v-604h-254v1454h254v-602q38 80 102 138t142 59l254 -2v-1047z" />
    <glyph glyph-name="n.alt" horiz-adv-x="1017" 
d="M879 1044v-1044h-258v817h-64q-67 1 -131 -67t-64 -140v-610h-256v1044h234l22 -188q95 186 232 188h285z" />
    <glyph glyph-name="E.alt" horiz-adv-x="1026" 
d="M383 1036v-57q0 -154 147 -154h123v-204h-131q-76 -3 -126 -47t-50 -111v-105q0 -66 58 -110t128 -45h68q64 0 124 40t85 83l170 -125q-119 -221 -377 -221h-67q-195 0 -319 101t-124 261v111q0 77 55 151t129 115q-61 31 -105 107t-44 149v90q0 162 120 255t300 93h55
q109 -2 200 -51t148 -133l-176 -144q-29 39 -79 70t-95 31h-53q-68 0 -116 -40t-48 -110z" />
    <glyph glyph-name="a.alt" horiz-adv-x="874" 
d="M520 297v166q-121 -10 -162 -42t-43 -91v-33q0 -109 84 -109q49 0 85 33t36 76zM451 1063q326 0 325 -326v-737h-201l-28 133q-27 -67 -90 -107t-165 -40t-168 68t-65 192v69q-1 90 49 155q50 66 130 94q142 50 286 54v103q0 67 -28 95t-86 28q-60 0 -130 -20t-100 -40
l-63 187q57 41 155 67t179 25z" />
    <glyph glyph-name="Ssmall.alt" horiz-adv-x="931" 
d="M813 309q0 -168 -99 -247t-268 -78q-100 0 -191 34t-146 91l90 165q35 -36 95 -64t116 -28q156 0 155 133l2 84l-438 232v215q0 158 102 230t274 73q172 0 308 -115l-94 -182q-84 78 -199 78q-145 0 -145 -113v-90l438 -223v-195z" />
    <glyph glyph-name="s.alt" horiz-adv-x="811" 
d="M731 301q0 -162 -89 -239t-234 -76q-203 0 -345 123l87 161q104 -88 210 -88q125 0 125 123v60l-362 223v178q0 147 93 223t244 76t273 -102l-82 -177q-84 57 -174 58q-109 0 -108 -107v-63l362 -217v-156z" />
    <glyph glyph-name="S.alt" horiz-adv-x="956" 
d="M115 1044q0 369 412 369q200 0 366 -133l-102 -190q-131 96 -250 96q-158 0 -158 -156v-147l508 -258v-263q0 -190 -116 -284t-308 -94q-123 0 -234 47t-174 127l131 174q96 -125 265 -125q75 0 119 42t44 128v119l-503 262v286z" />
    <glyph glyph-name="ft" horiz-adv-x="1368" 
d="M403 1141v-97h232v-174h-232v-870h-253v870h-142v174h142v132q0 143 120 220q121 77 285 77t282 -36t244 -114l-9 -31h1v-248h152v-176h-152v-563q0 -86 88 -86q29 0 90 21l47 -197q-92 -53 -222 -53t-194 60t-65 198v620h-112v176h112v191q-112 26 -246 27
q-168 0 -168 -121z" />
    <glyph glyph-name="f.liga" horiz-adv-x="624" 
d="M150 1059v129q0 150 122 230t291 79q170 0 375 -76l-41 -178q-27 5 -101 21t-175 16q-217 0 -218 -141v-80h222v-172h-222v-887h-253v887h-113v172h113z" />
    <glyph glyph-name="Lcaronsmall" horiz-adv-x="800" 
d="M573 1147h215v-55q0 -109 -30 -196t-59 -126q-30 -39 -72 -82l-131 70q78 113 77 264v125zM129 1145h256v-922h399v-223h-655v1145z" />
    <glyph glyph-name="Aacutesmall" horiz-adv-x="1062" 
d="M418 1315l215 315l160 -96l-252 -283zM426 438h219l-110 377zM408 1149h251l371 -1149h-285l-67 260h-291l-74 -260h-284z" />
    <glyph glyph-name="Abrevesmall" horiz-adv-x="1062" 
d="M527 1239q-81 0 -153 47t-104 127l115 37q43 -104 142 -104t143 104l116 -37q-34 -80 -106 -127t-153 -47zM426 438h219l-110 377zM408 1149h251l371 -1149h-285l-67 260h-291l-74 -260h-284z" />
    <glyph glyph-name="Acircumflexsmall" horiz-adv-x="1062" 
d="M248 1343l278 185l283 -191l-78 -96l-203 117l-204 -115zM426 438h219l-110 377zM408 1149h251l371 -1149h-285l-67 260h-291l-74 -260h-284z" />
    <glyph glyph-name="Adieresissmall" horiz-adv-x="1062" 
d="M813 1468v-192h-186v192h186zM430 1468v-192h-184v192h184zM426 438h219l-110 377zM408 1149h251l371 -1149h-285l-67 260h-291l-74 -260h-284z" />
    <glyph glyph-name="Agravesmall" horiz-adv-x="1062" 
d="M270 1538l164 100l211 -313l-121 -76zM426 438h219l-110 377zM408 1149h251l371 -1149h-285l-67 260h-291l-74 -260h-284z" />
    <glyph glyph-name="Aogoneksmall" horiz-adv-x="1062" 
d="M426 438h219l-110 377zM803 -272h272v-152h-487q-4 49 -4 72q0 141 59 231t145 121h-43l-67 260h-291l-74 -260h-284l379 1149h251l371 -1149h-43l4 -98q-182 -12 -188 -154v-20z" />
    <glyph glyph-name="Aringsmall" horiz-adv-x="1062" 
d="M453 1398q1 -34 23 -57t54 -23t55 24q23 22 23 56t-24 58t-55 25q-32 -1 -54 -25t-22 -58zM530 1241q-64 0 -111 47q-46 47 -46 114q0 68 45 112q44 44 110 44t113 -44q47 -46 47 -112t-47 -114q-47 -47 -111 -47zM426 438h219l-110 377zM408 1149h251l371 -1149h-285
l-67 260h-291l-74 -260h-284z" />
    <glyph glyph-name="Atildesmall" horiz-adv-x="1062" 
d="M673 1239q-45 0 -135 43t-138 43t-101 -70l-94 103q78 139 192 139q47 0 137 -42t123 -42q63 2 95 68l104 -90q-57 -104 -98 -128t-85 -24zM426 438h219l-110 377zM408 1149h251l371 -1149h-285l-67 260h-291l-74 -260h-284z" />
    <glyph glyph-name="Cacutesmall" horiz-adv-x="872" 
d="M365 1325l215 315l159 -96l-252 -282zM535 940q-176 0 -177 -170v-391q0 -84 56 -124t153 -40q96 0 191 64l92 -185q-137 -104 -318 -104t-306 98q-124 98 -124 301v373q0 215 116 309t308 94t303 -112l-104 -172q-84 59 -190 59z" />
    <glyph glyph-name="Ccaronsmall" horiz-adv-x="872" 
d="M754 1434l-277 -185l-278 195l77 96l199 -108l199 108zM535 940q-176 0 -177 -170v-391q0 -84 56 -124t153 -40q96 0 191 64l92 -185q-137 -104 -318 -104t-306 98q-124 98 -124 301v373q0 215 116 309t308 94t303 -112l-104 -172q-84 59 -190 59z" />
    <glyph glyph-name="Dcaronsmall" horiz-adv-x="1032" 
d="M801 1417l-277 -184l-278 194l78 97l198 -109l199 109zM655 379v397q0 141 -170 142h-96v-695h96q68 0 119 37t51 119zM133 1145h322q207 -1 333 -101t125 -278v-389q0 -184 -121 -281q-122 -96 -337 -96h-322v1145z" />
    <glyph glyph-name="Dcroatsmall" horiz-adv-x="1032" 
d="M655 379v397q0 141 -170 142h-96v-246h141v-180h-141v-269h96q68 0 119 37t51 119zM33 492v180h100v473h322q207 -1 333 -101t125 -278v-389q0 -184 -121 -281q-122 -96 -337 -96h-322v492h-100z" />
    <glyph glyph-name="Eacutesmall" horiz-adv-x="856" 
d="M338 1309l215 315l160 -96l-252 -283zM647 483h-258v-260h375v-223h-631v1145h588v-225h-332v-271h258v-166z" />
    <glyph glyph-name="Ecaronsmall" horiz-adv-x="856" 
d="M727 1417l-276 -184l-279 194l78 97l199 -109l198 109zM647 483h-258v-260h375v-223h-631v1145h588v-225h-332v-271h258v-166z" />
    <glyph glyph-name="Ecircumflexsmall" horiz-adv-x="856" 
d="M168 1337l278 185l283 -191l-78 -96l-202 117l-205 -115zM647 483h-258v-260h375v-223h-631v1145h588v-225h-332v-271h258v-166z" />
    <glyph glyph-name="Edieresissmall" horiz-adv-x="856" 
d="M731 1462v-192h-186v192h186zM348 1462v-192h-184v192h184zM647 483h-258v-260h375v-223h-631v1145h588v-225h-332v-271h258v-166z" />
    <glyph glyph-name="Egravesmall" horiz-adv-x="856" 
d="M188 1532l164 100l211 -313l-121 -76zM647 483h-258v-260h375v-223h-631v1145h588v-225h-332v-271h258v-166z" />
    <glyph glyph-name="Eogoneksmall" horiz-adv-x="856" 
d="M647 483h-258v-260h375v-223h-193l4 -98q-182 -12 -188 -154v-20h272v-152h-487q-4 49 -4 72q0 141 59 231t146 121h-240v1145h588v-225h-332v-271h258v-166z" />
    <glyph glyph-name="Iacutesmall" horiz-adv-x="575" 
d="M174 1309l215 315l160 -96l-252 -283zM158 0v1147h256v-1147h-256z" />
    <glyph glyph-name="Icircumflexsmall" horiz-adv-x="575" 
d="M6 1337l279 185l282 -191l-78 -96l-202 117l-205 -115zM158 0v1147h256v-1147h-256z" />
    <glyph glyph-name="Idieresissmall" horiz-adv-x="575" 
d="M569 1462v-192h-186v192h186zM186 1462v-192h-184v192h184zM158 0v1147h256v-1147h-256z" />
    <glyph glyph-name="Igravesmall" horiz-adv-x="575" 
d="M27 1532l163 100l211 -313l-120 -76zM158 0v1147h256v-1147h-256z" />
    <glyph glyph-name="Lacutesmall" horiz-adv-x="800" 
d="M348 1309l215 315l160 -96l-252 -283zM133 1145h256v-922h399v-223h-655v1145z" />
    <glyph glyph-name="Nacutesmall" horiz-adv-x="1159" 
d="M467 1309l215 315l160 -96l-252 -283zM782 1145h242v-1145h-262l-387 791v-791h-242v1145h266l383 -780v780z" />
    <glyph glyph-name="Ncaronsmall" horiz-adv-x="1159" 
d="M856 1417l-276 -184l-279 194l78 97l199 -109l198 109zM782 1145h242v-1145h-262l-387 791v-791h-242v1145h266l383 -780v780z" />
    <glyph glyph-name="Ntildesmall" horiz-adv-x="1159" 
d="M446 1319q-49 0 -100 -70l-94 103q78 139 192 139q46 0 136 -42t125 -42q63 2 94 68l104 -91q-57 -104 -98 -128t-85 -23q-44 0 -134 43t-140 43zM782 1145h242v-1145h-262l-387 791v-791h-242v1145h266l383 -780v780z" />
    <glyph glyph-name="Oacutesmall" horiz-adv-x="1099" 
d="M436 1329l215 316l160 -97l-252 -282zM733 369v403q0 78 -52 123t-118 45h-28q-70 0 -120 -44t-50 -124v-403q0 -82 49 -124t123 -42h24q74 0 123 42t49 124zM563 1165q180 1 302 -109t122 -282v-407q0 -179 -121 -283t-305 -104h-24q-188 0 -309 104q-120 104 -119 283
v407q0 174 122 283q123 109 304 108h28z" />
    <glyph glyph-name="Ocircumflexsmall" horiz-adv-x="1099" 
d="M266 1358l279 184l282 -190l-77 -97l-203 117l-205 -115zM733 369v403q0 78 -52 123t-118 45h-28q-70 0 -120 -44t-50 -124v-403q0 -82 49 -124t123 -42h24q74 0 123 42t49 124zM563 1165q180 1 302 -109t122 -282v-407q0 -179 -121 -283t-305 -104h-24q-188 0 -309 104
q-120 104 -119 283v407q0 174 122 283q123 109 304 108h28z" />
    <glyph glyph-name="Odieresissmall" horiz-adv-x="1099" 
d="M831 1483v-193h-186v193h186zM449 1483v-193h-185v193h185zM733 369v403q0 78 -52 123t-118 45h-28q-70 0 -120 -44t-50 -124v-403q0 -82 49 -124t123 -42h24q74 0 123 42t49 124zM563 1165q180 1 302 -109t122 -282v-407q0 -179 -121 -283t-305 -104h-24
q-188 0 -309 104q-120 104 -119 283v407q0 174 122 283q123 109 304 108h28z" />
    <glyph glyph-name="Ogravesmall" horiz-adv-x="1099" 
d="M289 1552l164 101l211 -314l-121 -75zM733 369v403q0 78 -52 123t-118 45h-28q-70 0 -120 -44t-50 -124v-403q0 -82 49 -124t123 -42h24q74 0 123 42t49 124zM563 1165q180 1 302 -109t122 -282v-407q0 -179 -121 -283t-305 -104h-24q-188 0 -309 104q-120 104 -119 283
v407q0 174 122 283q123 109 304 108h28z" />
    <glyph glyph-name="Ohungarumlautsmall" horiz-adv-x="1099" 
d="M995 1640l107 -86l-363 -299l-100 74zM623 1655l108 -86l-360 -299l-103 73zM733 369v403q0 78 -52 123t-118 45h-28q-70 0 -120 -44t-50 -124v-403q0 -82 49 -124t123 -42h24q74 0 123 42t49 124zM563 1165q180 1 302 -109t122 -282v-407q0 -179 -121 -283t-305 -104
h-24q-188 0 -309 104q-120 104 -119 283v407q0 174 122 283q123 109 304 108h28z" />
    <glyph glyph-name="Otildesmall" horiz-adv-x="1099" 
d="M418 1339q-49 0 -101 -69l-94 102q78 139 193 139q47 0 136 -42t124 -42q63 2 94 68l104 -90q-57 -103 -98 -127t-85 -24t-134 42q-90 43 -139 43zM733 369v403q0 78 -52 123t-118 45h-28q-70 0 -120 -44t-50 -124v-403q0 -82 49 -124t123 -42h24q74 0 123 42t49 124z
M563 1165q180 1 302 -109t122 -282v-407q0 -179 -121 -283t-305 -104h-24q-188 0 -309 104q-120 104 -119 283v407q0 174 122 283q123 109 304 108h28z" />
    <glyph glyph-name="Racutesmall" horiz-adv-x="1013" 
d="M434 1309l215 315l160 -96l-252 -283zM391 936v-330h137q53 4 83 41t30 96v70q0 53 -37 88t-84 35h-129zM895 741q0 -193 -147 -280l198 -461h-256l-162 420h-137v-420h-258v1145h424q145 0 241 -87t97 -229v-88z" />
    <glyph glyph-name="Rcaronsmall" horiz-adv-x="1013" 
d="M823 1417l-276 -184l-279 194l78 97l199 -109l198 109zM391 936v-330h137q53 4 83 41t30 96v70q0 53 -37 88t-84 35h-129zM895 741q0 -193 -147 -280l198 -461h-256l-162 420h-137v-420h-258v1145h424q145 0 241 -87t97 -229v-88z" />
    <glyph glyph-name="Sacutesmall" horiz-adv-x="884" 
d="M311 1327l215 315l160 -96l-252 -282zM805 332q0 -164 -92 -258t-273 -94q-114 0 -226 40t-177 115l121 156q100 -100 243 -101q168 0 168 129q0 51 -41 87t-145 67q-301 104 -301 338q0 172 109 262q110 90 279 90t329 -100l-82 -184q-115 70 -234 69q-75 0 -117 -34
t-42 -93t36 -96t134 -66q311 -100 311 -327z" />
    <glyph glyph-name="Scaronsmall" horiz-adv-x="884" 
d="M700 1436l-276 -185l-279 195l78 96l199 -108l199 108zM805 332q0 -164 -92 -258t-273 -94q-114 0 -226 40t-177 115l121 156q100 -100 243 -101q168 0 168 129q0 51 -41 87t-145 67q-301 104 -301 338q0 172 109 262q110 90 279 90t329 -100l-82 -184q-115 70 -234 69
q-75 0 -117 -34t-42 -93t36 -96t134 -66q311 -100 311 -327z" />
    <glyph glyph-name="Scedillasmall" horiz-adv-x="884" 
d="M805 332q-1 -164 -89 -254t-248 -98l-7 -27q152 -61 151 -197q0 -154 -245 -237l-62 110q139 55 139 121q0 98 -139 127l24 113q-195 34 -292 145l121 156q100 -100 243 -101q168 0 168 129q0 51 -41 87t-145 67q-301 104 -301 338q0 172 109 262q110 90 279 90t329 -100
l-82 -184q-115 70 -234 69q-75 0 -117 -34t-42 -93t36 -96t134 -66q311 -100 311 -327z" />
    <glyph glyph-name="Tcaronsmall" horiz-adv-x="856" 
d="M117 467v195h178v258h-281v227h824v-227h-287v-258h192v-195h-192v-467h-256v467h-178z" />
    <glyph glyph-name="Tcommaaccentsmall" horiz-adv-x="856" 
d="M305 -90h215v-55q0 -109 -30 -196t-60 -126t-72 -82l-131 70q78 113 78 264v125zM14 920v227h824v-227h-287v-920h-256v920h-281z" />
    <glyph glyph-name="Uacutesmall" horiz-adv-x="1120" 
d="M446 1311l216 315l159 -96l-252 -283zM731 385v762h254v-768q0 -193 -121 -293t-308 -100t-305 101t-118 292v768h258v-762q0 -176 170 -176t170 176z" />
    <glyph glyph-name="Ucircumflexsmall" horiz-adv-x="1120" 
d="M279 1339l278 185l283 -191l-78 -96l-203 117l-205 -115zM731 385v762h254v-768q0 -193 -121 -293t-308 -100t-305 101t-118 292v768h258v-762q0 -176 170 -176t170 176z" />
    <glyph glyph-name="Udieresissmall" horiz-adv-x="1120" 
d="M842 1464v-192h-187v192h187zM459 1464v-192h-185v192h185zM731 385v762h254v-768q0 -193 -121 -293t-308 -100t-305 101t-118 292v768h258v-762q0 -176 170 -176t170 176z" />
    <glyph glyph-name="Ugravesmall" horiz-adv-x="1120" 
d="M299 1532l164 100l211 -313l-121 -76zM731 385v762h254v-768q0 -193 -121 -293t-308 -100t-305 101t-118 292v768h258v-762q0 -176 170 -176t170 176z" />
    <glyph glyph-name="Uhungarumlautsmall" horiz-adv-x="1120" 
d="M1006 1622l106 -86l-362 -299l-101 74zM633 1636l108 -86l-360 -299l-102 74zM731 385v762h254v-768q0 -193 -121 -293t-308 -100t-305 101t-118 292v768h258v-762q0 -176 170 -176t170 176z" />
    <glyph glyph-name="Uringsmall" horiz-adv-x="1120" 
d="M637 1394q0 34 -24 58q-23 24 -55 25q-32 -1 -54 -25t-23 -58q0 -34 23 -57q22 -23 54 -23t56 24q24 22 23 56zM558 1237q-64 0 -111 47q-46 47 -46 114q0 68 45 112t111 44t113 -45t47 -111t-47 -114q-48 -47 -112 -47zM731 385v762h254v-768q0 -193 -121 -293
t-308 -100t-305 101t-118 292v768h258v-762q0 -176 170 -176t170 176z" />
    <glyph glyph-name="Yacutesmall" horiz-adv-x="1024" 
d="M399 1307l215 315l160 -96l-252 -283zM633 0h-254v418l-340 729h295l172 -475l186 475h293l-352 -729v-418z" />
    <glyph glyph-name="Ydieresissmall" horiz-adv-x="1024" 
d="M795 1460v-192h-187v192h187zM412 1460v-192h-185v192h185zM633 0h-254v418l-340 729h295l172 -475l186 475h293l-352 -729v-418z" />
    <glyph glyph-name="Zacutesmall" horiz-adv-x="913" 
d="M344 1309l215 315l160 -96l-252 -283zM842 240v-240h-768l-4 137l471 785h-437v225h727l3 -139l-469 -768h477z" />
    <glyph glyph-name="Zcaronsmall" horiz-adv-x="913" 
d="M733 1417l-276 -184l-279 194l78 97l199 -109l198 109zM842 240v-240h-768l-4 137l471 785h-437v225h727l3 -139l-469 -768h477z" />
    <glyph glyph-name="Zdotaccentsmall" horiz-adv-x="913" 
d="M348 1235v195h217v-195h-217zM842 240v-240h-768l-4 137l471 785h-437v225h727l3 -139l-469 -768h477z" />
    </font>
</defs>
</svg>
